<svg xmlns="http://www.w3.org/2000/svg" width="1427.8" height="1427.8" viewBox="0 0 1427.8 1041.1" stroke="none" fill="#000" stroke-linecap="round" stroke-linejoin="round"  xmlns:v="https://vecta.io/nano"><path d="M499 143c1-7.4 6-12.8 11-17.3 8-7 17.7-11 29-9.8 6.6.7 11.3 4.4 16 8.6.4.3.2 2-.2 2.4-.5.5-1.7.5-2.6.6 1 .8 2.4 2.5 3 2.3 4.3-1.8 4.6 1.8 5.4 4l8.6 29c2.8 10 5.2 20 13.3 27.6 1.7 1.6 3.4 2.7 5 3.3 8.3 3.2 13.4 10 18.4 16.6 3.8 5 7 10.7 10.2 16.2.5 1 .2 2.3.6 3.3.3.8 1 1.5 1.7 2.3 1 1.3 2.3 2.4 3 3.8a228 228 0 0 1 24.5 57.8c.3 1.3.2 2.7 0 4-1 5.2-2.3 10.2-2.8 15.4-.3 3.3 0 7 1 10 2.8 9.5 2.2 12.5-2 23.3-3.4 9-9 16.5-15 23.8-.7.8-1.2 1.8-2 2.5 0-2.6-.8-3.5-3-2.4l-3 1.4c2-2 4.2-3.7 6.2-5.5 1-.8 2-1.8 2.8-2.7-1.4-.2-3.2-1-4-.5-2.5 1.8-4.6 4-6.6 6.2-.2.2 1 1.7 1.7 3l-4 4c-4 4.2-4 4.2-.5 9 .3.3.2 1.3-.1 1.6-3 4 .3 6.2 2.5 8.6.5.5 1.2.8 1.7 1.2.1-.8.4-1.7.2-2.4-.4-1.4-2-3-1.6-4C619 386 621 382 623 378c-.5 9 0 17.6 4 25.8.5 1 .1 2.4.1 3.6 0 .5-.2 1.3 0 1.4 3.7 2.6 3.6 9 6.2 10 6 2.4 7 8 10.7 12 4 4 6.8 9 10 13.7l40 55c2 3.4 3.2 3.6 6.4 1.8 5.3-3 11-1.8 15.8 1.3 4.6 3 7.5 7 7 13-.2 1.8-1 3.6-1.7 5.4l-14.2-3c-.2 0-.8 1.4-1 2.2l-3 13.2c-.1.6-.8 1-1.3 1.5l.3-1.7c.3-3.4 1.2-7 .8-10.2-.2-1.6-2.8-3.3-4.7-4-2.5-.8-6.3.4-7.8-1-1.3-1.3-.1-5-.3-7.7-.8-7.6-4.6-13.8-9-19.8l-33-45.8c-2-2.8-5.8-4.6-5.2-9 .1-.5-2.2-1.2-2.8-2l-9-14.7c-5.2-6.8-11-13-16.5-19.7-1.7-2-3.2-4-4.8-6l-2.8 9c-.2.7 1 4-1.6 1-.1-.1-1.2.2-1.2.3-.1.8-.2 2.2.1 2.3 4 1.4.8 1.8-.2 3-1 1-1.5 2.7-2 4-.2.7 0 1.8.4 2.2 2.2 1.8 2.7 4.5 2.6 7.4l.3 20.5c.1 2.3 1 4.5 1.6 6.8.2.8.3 1.5.5 2.3.2-.7.5-1.5.5-2.2l-1-18c-.1-2.2.3-4.4.5-6.6l8 37c.2 1.2 0 2.5-.1 3.7-.5-1-1-2-1.6-3l-3.7-8c-.4-.7-1-1.2-1.6-1.8-.2 1-.6 1.8-.5 2.6 1.2 5.3 2.5 10.6 3.6 16-1-1-2-2-2.7-3.2l-2.5-3.5-.6 4v5c0 .6.6 1.2 1 2l1-1.7c.3-.6.6-1.3.8-2 .2 1 .5 1.8.5 2.8.1 1-.4 2 0 2.7 3.4 4.7 4 9.5 1 14.6-.2.4.3 1.4.7 2 .2.2 1.4-.1 1.6-.5 2.6-5 6.5-10 1.8-16-.3-.4-.3-1.2-.4-1.8.7.6 1.5 1 2 2 2.7 4 2.6 4 5.6 1 .6-.7 1.4-1.2 2-1.8-.2 1-.2 2-.7 3a109 109 0 0 0-15 43.3c-.1.6-.8 1-1.2 1.6-.3-.7-.7-1.3-.8-2-.4-4.4-.7-8.7-1-13-.1-.6-.3-1.2-.4-1.8-.2.5-.5 1-.6 1.6l-1 22c-.4 5.5-.3 11-5.2 15.4-1.2 1 0 5.3.8 8 2 6.7 2.2 6.6 7 2 1.5-1.4 3.4-2.5 4.8-4 1.3-1.3 2.3-2.6 3.3.2.1.3.7.4 1 .6l2.2-4.6c.6-1.3.6-3 1.5-4l29.6-28.7c.5-.5 1.2-.8 1.8-1.2.1.8.3 1.6.2 2.4l-2 9c-.2.6-1.8 1.2-2.7 1-3.8-.3-9.3 3-10 6.6 0 .1 1.3.8 2 .8 2.3-.2 3.5 1 3 3 0 .2-.1.4 0 .5 4.8 5.3-3.7 7-3 11 0 .2-.2.6-.4.8-2.8-5-5.6 1.8-8 0-1-.7-1-2.8-1.5-4.3-.3-1-1-1.6-1.3-2.5-.5.7-1.2 1.3-1.4 2-2.2 7.8-8.8 12-14.5 16.6-4.7 3.8-8.7 7.6-9.8 13.7-.2 1 .2 2.2.3 3.3 1-.5 2-1 2.7-1.5 7.5-7 15.8-13 20.5-22.4 2.3-4.6 7.5-1.3 10.5-4 0 .5.1 1-.2 1.5l-20 28.2c-1 1.5-3.3 2.4-5 3.3-2 1-4 1.6-6 2.7l-7.6 4.6c-1 .7-1.4 2-.8 4 .1.2-.3.7-.6 1l-91 100.5c-1 1.2-3 2.2-4.5 2.4-2.7.4-5.8-.1-3.8 4.3.1.2.1.6 0 .7-.3.1-.7 0-1 .2-9.8 8-20.5 13.4-33.5 12-4.2-.5-9.2-1-10.3-6.8-.1-.7-3-.5-3.5-1.4-2-3.3-4-6.7-5.2-10.3-.8-2.2-.5-5-.1-7.4.7-3.6 2.2-6.8 6.7-7 5.3-.1 11.4 1.4 15.7-.7 3.6-1.8 4.8-8 7.7-12 2.6-3.4 6-6 9.2-9 .3-.3 1-.1 1.3-.2-.2.5-.3 1-.6 1.4l-13 15c-.4.5-.5 1.4-.8 2l1.8-1c12.5-7.2 24-15.8 34.2-26l14.7-14.2c-2 3-.6 7.2-4.6 9.5-2.8 1.6-4 5.5-6.5 8-2 2-4.4 3.8-6.6 5.7-.5.5-.7 1.3-1 2 1 .1 2 .6 2.7.3 2.2-.8 4.2-1.8 6.3-2.5-7.6 5.7-11.2 16.3-22 17.5-1.4-2.2-1.4-2.2-4.2 1.3-2.2-1-3.3-1.5-4.3 1.7-.8 2.5-4 4.2-6 6.3-.5.5-1 2-1 2 4 2.5 1 3.4-1 4-3.8 1.2-3.6 4.7-4.5 7.5-.1.4.7 1 1 1.6.6-.5 1.8-1.2 1.7-1.5-1.6-4 1.6-2.5 3-2.5 8.5 0 16-2.7 21.7-9l39.7-39c-.5 1.7-.8 3.8-2 5L505.6 684c-.5.6-.8 1.4-1.2 2 1-.1 2.6.2 3.3-.4l11.6-10.5c10-9.7 16-23 26.8-31.8.4-.3.8-.8.8-1-.2-1.2-.6-2.4-1-3.6-.8.4-1.8.7-2.4 1.4l-12 12-6.7 2.5c-1 .4-1.8 1-2.8 1.3.6-.8 1.2-1.7 2-2.4.5-.5 1.3-.8 2-1.3l20-16.7c.8-.7 1-2 1.6-3-1-.1-2-.4-3-.2-2.6.4-5-.6-4.6-3 .5-2.3-.2-2.7-1.6-2a16 16 0 0 0-5.6 4.4c-1.3 1.8-1.4 4.4-2.5 6.4-5.4 10-13.8 17.3-22.6 24l7-9.2c4-4.8 8.3-9.4 12-14.4.8-1 .6-4.7.1-5-2-.7-3.4.1-1.3 2.3-.3.2-.5.4-.8.5l-7.2 3 26.5-41 1.8 2.8 2.6 3.2 2-3.3c5.3-12.5 9-25.4 11.2-39 1-6.2 1.4-12.4 2-18.7.1-.7.2-1.4.3-2.2-.7.4-1.5.7-2 1.2l-20 26.5c-.7-1-1.2-1.8-1.6-2.6-.5.4-1.4 1-1.3 1 .5 1 1 2 1.7 2.8-1.6 1.5-3.5 2.8-5 4.5-1 1.3-1 3.4-2 4.8L511 610c-1.2 1.5-2 3.3-3.5 4.6-.6.5-1.6 4.2-3 .5-1 2-3.2 3.8-3 5.6.1 1.8 1 1.7-1.3 1.4-3.3-.4-4.4 2-4.3 5 0 1.6.2 3.8-.7 4.8l-25 29c-3.7 4-8.8 6.7-13.3 10-.6.4-2-.4-3-.3l-8.3.5c-.3 0-.5.7-.7 1l5 1.5c-.6.1-1.3.2-1.8.4-6.4 2.6-9.3-2-12-6.3-2-3.4-4-7-5.4-10.7-2.4-6.6 1.3-14.2 8-16.8-.4 1.5-1.2 2.6-1.7 4-2.8 6.6-3.4 13.2 0 19.7.6 1 1.8 2 2.7 3 .4-1.2.7-2.4 1.3-3.4.5-1 1.2-1.7 2-2.3.8-.6 2-1 3-1.4-.7-.5-1.3-1.4-2-1.5-1-.1-2 .3-2.8.6-.3.1-.3.8-.5 1.3-.2-.4-.4-.8-.5-1.2-1.8-6 1.3-10.7 3.5-15.6 1-2.3 1.4-2.7-1-3-1-.2-2.3 0-3.5 0 .8-.3 1.6-1 2.3-1 18.3 2.3 31.7-6 43.5-18.8-6 8-11 16.7-20 22-1.3.8-1.8 3-2.6 4.5 1.8.4 3.8 1.5 5.4 1.2 7-1.6 12.2-6.2 16.5-12l18.7-24.2c1-1.3 2-3.8 1.3-4.6-1.6-2.2-4-2.4-6.4-.2L492 612l6.7-10.2c.5-.8.6-1.8.8-2.7-.7.3-1.5.6-2 1l-10.2 8c-.5.4-1.4.4-2 .6.2-.7.2-1.5.5-2 8.5-12 12-25.4 14.3-39.6.4-3 3-5.4 4.3-8 .4-.8.6-1.8.5-2.7-.1-.8-.6-1.5-1-2.3-.7.6-1.5 1-2 1.8-.5.7-.7 1.7-1 2.6-.2.5-.4 1-.6 1.5-.1-.4-.4-1-.4-1.3.6-16.5-6-30.8-13-45-1-1.8-1.3-3.8-1.8-5.7-.2-.8.1-1.8.2-2.7.8.6 2 1 2.4 2 1.2 2.5 2.2 5 3 7.7 2 6 4 12 6 18 .4 1.3 1.6 2.3 2.4 3.4.4-1.6 1.5-3.4 1-4.7l-5-14.3c-.7-2-1.8-3.7.5-5.7 1-.8.7-3.5.5-5.2l-3.5-22.5c-2.5-11.6 1-22.2 4-33a33 33 0 0 0 1-7.6c0-1-1-2-1.3-3-1 1-2.3 1.7-2.5 2.8-.6 3-.6 6-1.2 9-.3 1.4-1.5 2.7-2.3 4-.6 1-5 2-.2 3.5.3.1-.3 6.3-2 8.3-4.7 5.7-3.8 11.2-1 17.2.2.5-.1 1.2-.2 1.8-6.4-2.2-2.5 2.2-2 3.7a67 67 0 0 0 2.9 8.8c1 2.5.2 4-2.3 4.5-.4.1-1.5-2-1.6-3-3.2-18.8-.3-36.8 7-54 1.8-4.2 4.2-8.2 6.3-12.4.2-.5.2-1 .3-1.7-.5.3-1 .5-1.4 1L480 451.8c-10.3 14-16.5 30-19.8 46.7a133 133 0 0 0-1.5 40.7c1.5 13.4 5.4 26 10 38.6-5.5-.1-11-2.4-16 2-1 1-1.8 2-2.7 3 1.5.1 3 .5 4.5.2l14.2-3c-6 7.2-16 9.2-24.5 5-2-1-3.6-1.7-1.2-4 3.2-3 6.5-6 9.6-9.2 1-1 2.2-2.7 2-3.7l-9-38.3c-.2-.7-.5-1.3-.8-2-.4.5-1 1-1.2 1.6-1.3 2-2.6 4-4 6-.4.6-1 1-1.7 1.3l5.7-18c.3-1 .3-2 .5-2.8-.5.8-1 1.6-1.5 2.4L417 570c-1.5 3-3 6.2-5 9-3.8 5-5 11-8 16.4l-10 19-9 18.7c-1.2 2.6-2.8 3.3-5.3 3.3-1 0-2.3.5-2.7 1.2-3 6-6 11.8-8.8 17.8-.4.8.6 2.2 1 3.4.8-.6 1.8-1 2.4-2l4-6.8-2.6 7.5-5 10c-1.2 2-2 3-.1 5 .5.5 0 3-.8 4L344.3 705 320 731.5c-.5.5-.7 1.4-1 2 .7-.4 1.4-1 2-1.2 1.2-.4 2.5-.6 3.8-1l-2 3c-8.3 10-14.5 21.4-19 33.7l-3 8.8c-.4 1.3-.5 2.6-.7 4 1.5 0 3 .4 4.3-.2 4.6-2 5 .7 5.3 4l2 29.2c.1.7 1 1.4 1.7 2 .5.7 1 1.7 1.5 2.2a9 9 0 0 0 2.5 1.3c2.3-4 7.6-2.2 10.4-5 .3-.3 1.4-.3 1.6 0 3.4 3.5 7 2 10.6.7.4-.1 1.4.4 1.5.8 2.6 7.3 2.4 14.6.7 22-.8 3.6-.1 8.3-2.2 10.7-4.5 5.3-1.8 8.3 1 12.8 4 6.5 6.8 13.8 10 20.8.3.8.2 2.2-.3 2.8-1.4 1.5-3 2.7-4.8 4-.2-.6-.3-1.2-.4-1.8l-3-18.4c-.1-.7-1.6-1.2-2.5-1.7l-1 2.8c-.1.6.2 1.4.4 2-.4-.2-.7-.5-1-.7-2.8-1.8-2.8.1-2.6 2 0 .6-.3 1.2-.5 1.8-.2-.6-.5-1.2-.5-1.8 0-3.7.5-7.5-.2-11-.5-3-2.4-5.6-4-8.4-3-5.8-1.6-11.8-1-17.8.2-1.8-.6-3.7-1-5.5-.1-.5-1.5-1-1.6-1-2.5 2.3-4-1.6-6.2-1-1.5.3-3.3-.3-4.7.1-.5.2-.3 2.6-.2 4 .2 2 1.4 4.3.8 6-2.4 7-.6 13 3.5 18.3a51 51 0 0 1 11.6 21.2c.1.7 1 1.3 1.3 2l1.6-2c.5-.6 1-1.2 1.6-1.7.1.8.4 1.5.4 2.3.2 7.6.3 15-5 21.5-4 4.8-9.5 7.6-15.2 6-1.2-.3-3-2.8-2.7-4 2.2-8.3-.4-16-2.3-24-.2-1-1.7-2-2.6-2a58 58 0 0 0-10.1 1c-4.6 1-6.4-1.7-7.2-5.3-1.2-6.2-2.5-12.5-3-18.8-.3-4-1.8-3.6-4.2-2.4a19 19 0 0 0-10.8 14.8c-1 7.2-1 14.7-1 22 0 1.3 1.7 2.5 2.6 3.8 1 1.5 2.7 3 3.2 4.6 4.7 17.5-1.5 32.8-10 47.7-8.3 14.8-19 28.4-23.3 45.3l-7.8 29.8c-2.4 8-7 14.6-14.7 18.7l-5.6 2.6c-.4.2-1-.1-1.3-.1.2-.5.7-1 .7-1.5 0-1-.3-2.2-.5-3.3-1.3.6-2.7 1-3.7 2-.6.6-.7 2.7-.4 3 2.3 1 2 1-.2 1.3-8.5.7-14.5-3-18.7-10-.2-.4 0-1.6.2-1.7 1.6-.5 4-.3 4.7-1.3 1.4-1.7 2.6-4.2 2.5-6.3-.8-20.5 10.6-36 21-52 7-11 15-21.3 18.5-34.3a57 57 0 0 0 .9-21.1c3 2 3.8 4.8 3.8 8.3 0 4.4-1.3 9 1.8 13.2.6 1 .3 3-.4 4.2l-23.7 36.5c-9 12.6-18.7 24.5-12 41.6 1 2.4.6 5.3 1 8l7.2-2.7c-2 4 .7 3.7 3 4-.8 1-1.5 2-2.4 2.6-.8.6-1.7 1-2.5 1.7 1.3.5 2.5 1.2 4 1.3.7.1 1.8-1 2.2-1.6 2.6-4.5 5.2-9 7.6-13.7.2-.5-1-1.7-1.7-3 3.8-4.2 3-9 2.6-13.8-.2-1.7 1.6-3.7 2.4-5.5.3 1.2.3 2.7 1 3.7 1 1.2 2.3 2 3.5 3 0 0 .8-.6.8-1l2.5-15c.2-.8-1.3-6.2 2.7-1.8.7-.7 1.6-1.3 2-2l3.3-9.6c.3-1.6 4.7-4-.5-5.4.1-.4.1-.8.3-1l19.3-28.5c5-8 8.2-16.8 6-26.6-1.2-5-3.2-10-3.8-15.3-1-8.5-2-17-2-25.6.2-12.3 4.2-22.7 15.8-29.5 8-4.7 15.3-10.4 23-15.8.6-.4 1-1.8.8-2.3-.5-1-1.7-2.2-2.4-2-1.4.3-2.8 1.3-4 2.2-.8.6-1.2 1.7-1.8 2.5l-.4-3.3V800c0-4 1-8.4-3.4-11-.5-.3-.3-1.7-.4-2.6l3.5 2.5c.1-.6.3-1.3.3-2-.2-3.6-5-6-9-4.5-1 .4-3 1.7-3.2 1.5-4-4.5-8.6.1-13-.7-1.4-.3-3.3 1.8-5 2.8 1.6.3 3 1 4.7 1 .8.1 1.8-.8 2.6-.8 2.2 0 4.4.3 6.5.4l-6 2.4c-.3.1-.7 0-1 0l-19-1c-.5 0-1-.5-1.6-.8l2-1.2 7.3-1c.5-.1 1-.2 1.3-.4l-.5-.6c-2-2-7-1-8.6 2l-3.7.5c2 4-1.4 4.6-3.6 5.5-6.7 3-11.4 7.5-13.5 14.6-.4 1.2-1.3 2.3-2 3l-.7-2.7-1.3 1c.7.7 1.3 1.4 2 2.4-14 8.8-10 11.6-7.6 20.4 1.2 4.3 6.7 8.6 6 12-1 5.4 3 8.5 2.8 13l-.2 8.7c0 .5-.1 1-.2 1.5 3.5-.4 2 2.2 2 3.6l-1 12c-.2 2.2-.8 4.4-.7 6.6.3 8.4-2.7 17.3 3.8 24.7l-1 5.3-.6 3.7-1.4-3.4-4.2-14.2c-1-3.8-3-4-5.2-1.4L209 924.2c-1.5 1.8-2.7 3.7-5.3 4-.6 0-1.2 1-1.7 1.5-.2.2.2 1 .4 1.3.6-.5 1-1 1.7-1.5.4-.2 1-.3 1.3-.4-.1.5-.1 1-.3 1.4-4.5 9-8 18.4-9.5 28.5l-2.7 18.4c-.7 3.2-2.5 6.3-4 9.3-.5 1-2 2.8-2-.4 0-.1-2-.5-2-.3-1 1.6-1.6 3.4-2.3 5-.2.4-.3 1-.5 1-6 2-12.2-1-15-6.7l-.5-1.2c-.2.3-.4.5-.4.8-.4 2-.8 3.7-1 5.6l-2.4 33.5c0 .3.6 1 .8 1l21.5-6c.6-.2 1-1.7 1-2.7.1-4.2 0-8.3.1-12.5 0-.6.3-1 .5-1.7.2.4.2 1 .5 1.3 6.6 10.7 2.5 24.4-7.6 29.8-.6.3-1.4.5-2 .8l2.7-4c-.7-.2-1.5-.8-2-.7-.8.3-1.7 1-2.2 1.7s-.5 1.8-.8 2.6c-.3.6-.8 1.4-1.2 1.5-.7.1-1.5-.4-2-.8-.2-.2.2-1 .5-1.7.8-1.8 2-3.6 2.3-5.5.2-1.2-.8-2.6-1.3-4-.7 1-1.6 1.7-2.2 2.7-.8 1.4-1 3.2-2.2 4.2-2 1.8-4 2.4-7 .2-5-4-8-10.8-6-16.4.5-1.4 1.7-2.6 2.6-4 1-1.7 3-3.2 3.2-5 1-6.7 1.5-13.4 2-20 .1-1.4.7-2.2-2.3-2.3-3-.1-5 .2-7.8 1.4-2.4 1-6-.3-9-.7-4.3-.6-6-2.7-6-7.5l-4.8-69c-1-12.6-2.4-25-2.8-37.7-.1-4.2 2.6-8.5 4-12.7.1-.4 1-.6 1.4-1 .1.5.2 1 .2 1.4v10.2c.6 13.3 7 23.5 17.6 31 2 1.4 2.7 1.4.8 3.4-4.3 4.4-4.2 4.4-8.4-.3-.3-.4-1.8-.4-2-.2-1.3 2.5.7 5.7 3.7 6.3.5.1 1.3 1 1.2 1.5l-8 40.2c-1 6-2 11.8-3 17.7-.1.4.2 1 .3 1.4.4-.2.7-.4 1-.7 5.7-5 11.8-7 19-3.3.7.4 2.3-.2 3-1a335 335 0 0 0 53.3-63.7c1.3 6.6 5.6-2 7.2 1.8.7-.6 2-1 2-1.8.2-1.6.7-4-2.3-3.2-2 .5-3.7 1.3-5.6 2l7-13c.2-.4 1-.6 1.4-1 .2.6.5 1 .6 1.7l1 7c.1.5.7.8 1 1.2.3-.4 1-1 1-1.3l1-10c.4-2 2.8-4 2.6-5.6-.2-1.2-3-1.6-2.8-4.6a119 119 0 0 0-7.9-47.6c-1-3-2.4-6-3.8-9-.4-1-1.2-1.8-1.7-2.7-.5 1-1.2 2-1.4 3l-6.7 28-.4-29.8c0-.6-.2-1.2-.3-2l-1.4 1c-6.8 5.8-11.8 13-15.2 21-.2.5-.4 1-.6 1.5-.1-.6-.5-1.3-.4-1.8l6.3-20c.4-1.3 1-2.5 1.6-3.8l-3.8 1c-1 .3-1.6 1-2.4 1.4-2 1-5 3.8-5.3-1.7-.1-1-1.3-2-2-3-1 .8-2.6 1.5-3.4 2.6L170.3 827c0-1-.3-2 0-2.7L178 809l12-17.6c.2-.4.5-.7.8-1 .1.5.3 1 .1 1.4l-2.6 5.4c-.3.8-.1 1.8-.1 2.7.6-.5 1.3-1 1.8-1.5 10.2-12.8 22.5-23.2 36.2-32 2-1.3 5.3-.6 7.5-1.8l88-48.4c-.3 1.4-.8 2.5-1.3 3.7l2.6-.5-1-3.4 21.8-28.5c5.4-8 9.6-16.6 14.2-25l79.2-147c4.4-8 2.8-16.7 2.4-25.2-.2-4-1.2-8-1.6-11.8-.8-8.5-1.2-17-2-25.7l-5-44c-.6-5.3-.7-10.7-1-16-.1-2.6 0-4.3-4-3-2.5 1-6-.5-9-1-.4-.1-.7-1-1-1.4h1.7c.3.1.5.6.7.6l6.4-1-4.7-2.3-5.2-3.2 6-1.6 11-2c.6-.1 4.2-.7 1-3-.8-.6-1.6-1.3-2-2-.6-1-.8-2.2-1.2-3.4 1-.1 2.3-.5 3.3-.3l10.7 2c3 .2 1.5 1 .6 2-.3.3-.6.8-.6 1.2l-.6 7 2.5-5c12.3-26 21.7-53.4 31-80.6 2-6.3 3.4-13 5-19.4.2-.7 1-1.3 1.3-2l1.8 1.5 4.6 5 4.3-34.2c.1-.5.4-1 .6-1.4l.3 1.4 2 20.7c.1.6.3 1.2.5 1.8.2-.6.5-1.2.5-1.8v-18.5c0-1.3.3-2.5.6-3.8.2-.7.7-1.2 1-2 .1.6.3 1.2.4 1.8l3.5 19c.2-.8.6-1.5.5-2.3l-8.3-55.5c-.6.5-1.3.8-1.7 1.4l-10 15c-.5.8-1 2.3-1.4 2.3-7-.1-8 5.7-10 10.2-2.4 5.7-4 11.7-5.7 17.6l-.4 1.3c-.2-.5-.6-1-.6-1.5-.5-6.8-1-13.6-1.8-20.4a59 59 0 0 1 3.8-6c1.3-1.7 4-3.7 3.7-5-1.3-5.4 2.5-8.4 5.2-11 5-5.2 11.2-9.5 17.2-13.8 2-1.5 3.3-2 2.5-5.3-.8-3.2-2.8-7 .2-10.7.4-.5-1.7-2.6-1.8-4v-21.6c.3-4 2.2-7.7 3.6-11.3l1.7 4.7c.5-.2 1.5-.3 1.5-.6.1-1.6 0-3.3 0-5l-3 .6M340 825.5l.7 3.5 1.3-.8-2-3.7c.6-1 1.4-1.7 1.6-2.7.2-.7-.3-1.7-.8-2.3-.3-.3-1.7-.2-2 .2-1.3 2-3.5 4.4 1 6M496.4 288c-5-.3-5.4 4.3-7.4 7-.2.3.1 1.6.4 1.7.7.2 2 .3 2.2-.1l9.2-14.2c.4-.8.1-2 .1-3-1 .5-2.6.8-3 1.6-.7 2.2-.8 4.6-1.6 7m66 59c-3.8 0-7.6-.1-11.4.1-.7 0-1.4 1-2 1.7.7.4 1.3 1 2 1.2 2.5.4 5 1.3 7.5.8 1.7-.3 3-2.4 5-3.8l9.5-1c1-.2 2-1 3-1.4-1-.2-2.2-.7-3-.5-3.3.8-8-2.5-10.3 3M555 529.5c1.4-2 1.6-5.7 5.7-3.6.2.1 1.2-.8 1.3-1.4.8-5.5 2.4-11.2 1.8-16.6-.6-5.2 1.8-9.7 1.7-15-.2-12.6-5.7-24-6.5-36.5-.1-1-2-2.5-3-2.5-2.4-.1-2.4.2-2.8-2.3-.2-1-.6-2-1-2.8-1 .6-2.8 1-3.2 1.8-3.6 8.5-11.3 16.2-5 26.6.2.3.2 1 0 1.3-3.7 5.3.1 11-.6 16.4-.3 2.2 2 4.6 3.3 7 .5 1 1.4 2.2 1.4 3.4l.3 20c.2 2.3-.8 7.3 4.8 7-.3.4-1 .7-1 1v8l6.2-4.5c.7-.6 1.5-1.4 1.7-2.3.4-2.2.5-4.6.6-6.8l-5 2c-.1.1-.3 0-.5-.5m81-204l.7 2.5 1.3-1c-.7-.7-1.3-1.4-2-2.6 1.6-5.4 4.6-10.5 3.5-16.5h2.5c-.8-4-1.4-8-2.5-12-.4-1.4-2.3-2.7-2.5.6 0 .4-.3 1-.5 1.3-.2-.4-.4-1-.5-1.3-.3-2.7-.3-5.5-1-8-1-4.5-2.6-9-4-13.3-.4-1-1-2.2-1.5-3.3-.8 1.5-2.5 3-2.3 4.4.4 2.5 2 4.8 2.7 7.3.6 2.4 4.4 5.7-1.2 7.2-.4.1-.4 1-.7 1.6-.5.8-1.2 1.4-1.7 2.2-.1-1-.5-2-.1-3 2-4.8 1-9.3-1-13.8l-1.4-3-1 5c-.2-.6-.4-1-.5-1.7l-3.7-25.4c-1.7-7.6-7-13-11.6-18.7l-7.5-9.4c-2-2-1.7-6-6-6.3-1.2-.1-2.6-3-3-5-1-3.3-1.5-1.5-2 0a36 36 0 0 0-2.6 21.1c1.3 8 3.6 15.8 5.7 23.6l4 12.8c.3.8 1.6 1.3 2.4 2 .2-.4.5-1 .5-1.3l-2-18.7v-24.7c0-.4.3-1 .4-1.3.2.5.5 1 .6 1.6v25a47 47 0 0 0 5.9 23.6c6.7 12 13.7 24 20.8 36 3 5 3 6.8.4 10.4l-.3-3.3c-.5.3-1 .6-1.4 1-.8 1.4-1.5 3-2.2 4.4l3.4-1.6c.1-.1.3 0 .5.5l-17 20c-3 3.8-7 7.4-9 11.8-3 8-5 16.3-7.2 24.5-.5 1.8.5 2.8 2.3 2.5.2 0 .6.1.7.3 4.4 5.8 2.2-2 4-2 0-1.5-.1-3 .2-4.4.2-1 .8-2 1.2-3 1 .4 2 .7 2.7 1.3 1.6 1.4 3 3 4.7 4.5.4.4 2.2.1 2.2-.1.8-3.7 1.7-7.4 2-11 .2-2.2-1-4-3.6-1.8-1.6 1.3-3.2 2.7-4.8 4-.4.3-1 .4-1.4.6.1-.5 0-1 .2-1.3.5-1 1-2 1.8-2.8 12-13.4 24.5-26.4 33-42m-106 142c2-2.4 2.3-4.6 1.4-7.8-1.7-6.2-2.4-12.7-3.4-19-.2-1 .4-2.4.6-3.6 1 .6 2 1 2.7 2 2.2 2.3 4 3.8 3.7-1.3 0-.8 1.5-1.7 2.2-2.5.2 1 .4 2 .6 3 .5 2.3-.3 3.8-2.4 5-1.3.8-3.7 2 .5 3.2 3.7 1.2 4.2-.1 5-2.8 1.3-4.3 1-9 5.7-12.4 2.4-1.6 2.2-6.8 3.3-10.4.1-.5.6-1 1-1.2 1-.2 2-.1 3-.1-.7-1-1.7-1.7-2-2.8-.5-1.4-1-3-.8-4.5.1-.8 1.4-1.5 2-2.2.6 1 1.5 1.6 1.7 2.6l9.6 33.5c2.5 9.5 4.4 19.2 6.5 28.8 2 9.5 4.4 19 5.8 28.5 1 7.2 2.7 15-2.8 21.3-3 3.6-2 7.7-2 11.7 0 2.4 1 4.8 1 7l-4 38.3c-.7 5.2-3.2 10-4.8 14.6.1-.8.5-1.6.3-2.3-.3-1.2-1-2.4-1.4-3.6l-1 6c0 .2 0 .3 0 .5.7-.1 1.3-.1 2 .3l-1.4 3.4c-3.6-1.7-5.6 1-8 3-1.2 1-3.2 2.3-3 3 .4 1.8 1.8 3.5 3 5 .4.5 1.3.7 2 1l1.3.5c-.4.2-1 .6-1.2.5-6-3.3-9 1.5-12 5-1.5 1.8-2.2 5.3-1.5 7.5.5 1.6 3.6 2.6 5.8 3.4 1 .3 2.3-.6 3.5-1l-2-2.8c-.3-.4-1-.5-1.4-.7.3-.1.7-.4.8-.4 4 2.7 6.7-6.4 10.8-1 .1.1 1-.2 1.2-.5 3.4-3.7 7.7-6.6 9-12 .3-1.3 2-2.3 3-3l.6 2.4 1.4-1.8c-.7-.4-1.3-.8-2-1.6l8-12c.7-1 1-1 2.2-.7.5.2 2-.3 2-.5-.1-1.7 5.2-4.2-.6-5.3-.2 0-.2-2-.1-3l3.4-22c.8-6 1.3-12 2-18.2 1.3-11 3-22 4-32.8.6-7.3.1-14.8.1-22.2 0-.6.3-1.2.5-1.8.2.6.5 1.2.5 1.8.1 2.3 0 4.7 0 7 0 .7.3 1.4.5 2.2.4-.7.8-1.3 1-2 3.4-11.5 6-23 5.4-35.3 0-.5-.2-1-.3-1.4l-.7.7c-2 2.2-2 .8-2-1l-1-14.6-3.7-21.5c-1.7-7.2-4.2-14.2-6.2-21.4-.4-1.3.1-3 .2-4.3l1.7 3.4c.7 2 1.2 4 2 5.7.5 1 1.4 1.8 2 2.7.3-.8.7-1.6.8-2.5.4-3 .7-6 1-9 0-.3 1-1 1-.8 1.7 1 1.7 3.7.4 5.5-.6.8-.4 2.2-.4 3.3 0 .1 1.2.5 1.6.3 3.3-1.6 4-5 2.4-8.6-1.8-4.5-6-3.4-9-4-3.2-.6-6.7.4-10-.3-2-.5-4.4-2.3-5.5-4-.7-1.3.5-3.7 1-5.6.1-.3 1-.4 1.4-.7 0 .5 0 1-.1 1.3-1 3.5-.4 6 3.6 6.2s8 .1 12-.1c.4 0 1-1.6 1-1.6-3-2-8 1-10-4-.4.2-.7.4-1 .6-.1.1-.3.4-.3.3-.5-.2-1-.4-1.4-.7-1.4-2-4-4-1-7 .7-.7 0-2.6.1-4 .5-8 2.7-15.3 8.4-21.6 3.3-3.6 5.3-8.4 8-12.7.4-.6.1-1.6.1-2.4-1 .1-2.2-.2-2.7.3-1.4 1.3-2.5 3-3.6 4.4-.7 1-1.2 2.4-2 3-10 6.7-20.6 11.3-32.4 13.5-5 1-9.3 2.6-12.8 6.7L529 384.3c-11.6 12-21.2 25-23.4 42.3l-5.6 37.6c-1 10-.5 20.4 0 30.6.2 3.8 2 7.5 3.4 11 .2.5 1.3.7 2 1 .1-1 .6-2 .4-2.8-1-4.2-2.5-8.3-3.6-12.4-.1-.5.1-1 .1-1.7.6.2 1.3.2 1.7.6.7.8 1.6 1.7 1.8 2.7l2 12.7c.5 5.2 1.6 10 5.4 13.8 3.2 3.2 3.4 7.2 3 11.6-.7 6-1.7 12-1 18 1 6.8-1 12.2-4.6 17.4-2.3 3.3-4 6.5-1.8 10.6 0 .1-.7.6-1 .8-1 .4-2.3.7-3.4 1-.7.2-1.7.4-2.3.1-.5-.3-.6-1.3-1-2-.4.8-1.3 1.8-1 2.5.7 2 1.2 5 2.8 6 3.6 2 8 2.5 11.7 4.3 5.4 2.7 7.7-.1 9.4-4.5.8-2.2 1.3-4.5 2-6.6.2-.7 1-1 1.7-1.6 1.6 2.7 2.8.7 4-.5 3.4-3.6 5.6-7.8 5.3-12.8l-2-27.7-3-23.7c-.2-1.3-2.8-2.4-2.7-3.6.2-7.3-4.5-14.8.3-22 .8-1.2.5-3 .5-4.7 0-.4-.7-.8-1-1.2-.3.5-.8 1-1 1.4-.1.8.1 1.7-.1 2.5-.2.8-.7 1.4-1 2l-.8-2c-2.2-6 1.4-10.8 3-15.5l3-.4c-.7-.4-1.3-.8-2-1.6m-52-152c-1.7 6.8-8.3 11.4-9 18.8-.2 2.2-1.4 4.4-2.4 6.5-1.4 3-3.3 5.6-4.6 8.5-1.2 2.7 0 7-.8 8.4-5 8.6-9.8 17.2-12.3 27-.1.2-1.4.4-1.4.4-2.2-5.6-2.7-.5-3.5.6-1.5 2-2.4 5-4.4 6-5 2-3.7 5-2.2 8.4.2.6.4 1.2.5 1.8l13 69.3 2-5c.2-.8.1-1.7 0-2.5l-1-23c0-1 .2-2.2.3-3.4.6 1.2 1.5 2.3 1.6 3.5l2 26.7c.1 2 2 5.4-3 5.4-.7 0-2 3-2 4.7 0 1.2 2 3.6 2.6 3.4 2-.5 4.4-1.5 5.2-3L476 446c2.6-4.7 5.5-9.8 9.7-13 9.2-7 9-16.3 8-25.6a114 114 0 0 1-.7-24.3c0-.4.4-.8.5-1.2.1.4.4 1 .4 1.3.1.8-.2 1.7.1 2.5.3.8 1 1.4 1.6 2.2.4-.7 1.2-1.3 1.3-2l1-7c0-.6-.8-2-1.3-2-2 0-1.8.1-1.7-2 .1-2.7.7-5.5-.1-8-2-5.8 2.7-7 5.8-9.2l2.3-1.5-2.4-3.5c-.7.7-1.3 1.4-2 2-.6.4-1.4.6-2 1 .3-.6.5-1.3 1-1.8a38 38 0 0 0 8.4-22.1c.6-7.6-.2-15.4-1-23-.2-2.4-1.6-5.4-3.5-7-2.6-2-1.8-3 .1-4 2.3-1 2-3 2.3-5-2-.1-5-1-6-.1-7 7-15 12.6-19.8 22.4m42-41l-1 10c.3 6.2 2 12.5 1.7 18.7-.3 8.6-1.6 17.2-3 25.7-.8 5.6 4.6 11 11.6 15 .7.4 1.5.5 2.3.7-.8.1-1.6.1-2.4.3-.8.2-1.6.6-2.4 1 .2.4.4 1 .7 1 2.3.4 4.7.8 7 1 .2 0 .6-1.2 1-1.8-3-1.2-1-1.4.3-1 2.2.5 6 2.4 6.3 1.8 2.7-3.8 6.8-1.8 10-2.5l32.3-5.2c2.8-.4 2.7-1 2-3.2a66 66 0 0 1-2.5-12c-1-8.2-.6-16.6-2.2-24.6L571.6 257c-1-4.5-2.5-7.5-8-4.2-2 1.2-4.4 1.5-6.6 2-10.3 2.5-20.4 5.7-31 1-3.8-1.6-5.6 1-5.3 5.3.4 4-.5 8-.8 13m-9-78l-1.4-1.4c-.2.8-.6 1.7-.4 2.5l5 25 6 23c.3 1 2.4 2.4 3.8 2.4 13.6.5 27 .2 40-4.3.7-.2 1.7 0 2.4.4 1 .5 2 1.4 3 2 .2-1.2.6-2.5.5-3.7a98 98 0 0 1 5.1-38.3c1.6-4.5.1-7.2-2.2-11-3.6-5.5-6-11.8-9-17.8l-1.5-3.3-1.5 9.4c-.7 2-1.4 4.8-3 5.4-10.6 4.8-13.7 13.7-14 24.2 0 1-.2 2.7-.4 2.7-5.2.3-5.7 6.3-10.3 8.5-4.4 2-1.8-2.7-3.2-1.6l-1.8-5.5-1.8 4.8c-.4.8-1 1.6-1.6 2.3-.3.3-.7.5-1 .8-.3-.4-1-.8-1-1.3-1.3-9.4-5.8-17.3-12-25.2m11.5-38.5l5.7-.7c8-.8 15.8-3.3 23.5 1 1.5.8 3.4 1 5 1.5-1-1-2-2-2.7-3-.6-1-.8-2-1-3l-1.8-6.7c-4.6-12-16-10.6-25.5-12.7-5-1-5.8 3.7-8.4 6-.7.7-1.3 1.5-2 2-8.7 6.4-11.7 15.3-11.2 25.7.1 1.3 1 2.7.5 4-2.6 8.8 1.6 15.2 10.6 16 8 .8 9.3 2.2 11 9.2 1.2 5 3.2 9.6 5 14.4l1.5 3.4c.5-1.3 1.3-2.5 1.5-3.8 1.8-11.4 5.6-21.4 17-26.7 1-.4 2-2.3 1.8-3-1-3.2-2.7-6.2-4-9.3-.1-.2.5-.7.7-1 .3-.6.6-1.2.6-1.7-.1-1-.4-2-.7-3l-1.6-4.2c-1 .7-1.7 1.4-2.6 2-.3.2-1 .3-1 .1-4.3-3.4-9.4-2.7-14-2-4.5.6-8.8 2.8-13 4.6-.8.3-1.2 1.7-1.8 2.7l-1 2c-.5-.8-.8-2.2-1.4-2.3-2-.4-4.2 1-4-3.3.3-3.6-.3-5 3.6-5.8l10.2-2M283 776.5c3-.5 5.6-1.2 6.5-4.5l8.2-29c2-4.8 2-5-3-5-1 .1-1.8.5-2.7.6-8 .7-10.5 10-18 12-.1 0-.2.2-.4.3l-18 16c-.8.7-1.8 1-2.7 1.7.5-1 .7-2.5 1.5-3.3 3.2-3 6.5-6 9.8-9 .7-.7 1-1.8 1.6-2.7-1 .2-2.5.1-3.4.6-3.5 2.2-6.8 4.6-10 7-1.2.8-3 1.5-3.3 2.6-.7 2.8-.7 5.8-1.2 8.7-.3 2-1 3.7-1.6 5.5 1.3-1.2 2.5-2.5 4-3.5 1-.7 2.2-.8 3.4-1.2l-1.7 2.5-1.7 4c1.5.1 3 .4 4.3.2 3.6-.8 7.2-2.3 10.8-2.6 5.7-.5 11.4-.2 17.6-.7m46 108c-1.4-3.4-2-7.4-4.4-10l-16.7-17c-1-1-5-2.7.1-4 .6-.1 1.3-2.2 1-3-2.7-5.2-1.3-9.4 2.4-13.5.8-1 .4-3 .5-4.6-1.2.5-2.5 1-3.5 1.7-1.8 1.3-3.5 2.8-5.2 4.3-.8.7-1.4 1.4-2 2.2.5-1 .6-2.6 1.4-3.4 3.2-3 6.5-6 9.7-9 .4-.4.4-1.3.5-2-.6.1-1.3 0-1.7.3L292.6 840c-1.2 1-1.7 3.5-1.6 5.2l2 20.2c.8 7.7 4.8 10.4 12.2 8.6 6-1.5 13 2 13.8 7.3.6 4 .5 8.2 1 12.2.2 1.6 1.6 3 2.4 4.5l2-2-.4 3.4c0 .2.5.6.6.5 1.4-.7 3-1.2 4-2.3.5-.7-.3-3.5-.6-3.5-4 0-.8-2.2-.7-3 .2-2 1-4 1.6-6.8M202.4 803c6.6-1 11.8 2.8 17.3 5.3 1.6.7 2.8 2 4.2 3l-1-8c0-.3-.6-.4-.7-.7-.5-1.4-1.6-2.4.8-4a44 44 0 0 0 10.6-9.2 34 34 0 0 0 8.4-20c.2-3-.8-3.3-3.3-2L218 778c-11.6 6.8-21.8 15.5-31 25.4-.5.5-.7 1.3-1 2l2.4-.4c4.4-.7 8.7-1.4 14-2m329-445c.5-.3 1.4-.5 1.4-.8.6-4-2.8-5.6-8.5-4-4.2 1-5-.2-4.8-4.4.2-2-1.5-4.4-2.3-6.7l-3 4.3c-.3.4.4 1.3.4 2 .1 3.8.5 7.7.2 11.5-.4 5.4-1.3 10.7-2 16l-1 10c-.1 1.3.4 2.7.7 4 1.3-.8 3.2-1.2 4-2.3l15-21.7c2-3 5.6-6.5-2-7-.6 0-1.2-1.4-1.5-2.2-.1-.3.7-1 1.2-1.5l2.3 2.7m87.5-3.5l-5.2 4.2c-.7.6-1.8 1.5-1.7 2 .2 1.4 1 2.8 1.6 4 1.7-1 4-1.4 5-2.8 2-2.4 2.7-6.7 5-8 7.6-4 12.5-9.7 14-18 .1-.4.5-1 .6-1 6 2.3 5.2-3.7 7.3-6 .4-.5-.3-2-.6-3l-5.7 2c.3.7.7 1.4.7 2 0 1-.2 2.2-.3 3.3-.4-.3-.8-1-1.2-1-1 0-2.5-.1-3 .5L619 354.5m-15-31c-.3-.4-.8-.7-1-1l-1.5-4.4c3-.6 2.4 1.6 2.5 3.3 0 .3.8.8 1 .7.7-.4 2-1.3 1.8-1.4l-4.6-6.3c-4 2-3.4-1.5-4.5-3l-2.5-3-1.2 12c.1 4.7.6 9.5 1 14.2.1 1 .4 1.8.6 2.7.6-.3 1.5-.4 1.6-.8.2-1-.1-1.8-.2-2.8l-.1-2.5c5 .7 5-4 7-7.5M457.4 660l8.2-4.3c.2-.1.1-1.4-.2-1.7l-9.7-6.6c-1.4-.8-3.6-1-5-.5-1.3.6-2.5 2.6-2.7 4-.8 6.5 1.5 9 9.4 9M601 304.5c-.2-1.6-.1-3.3-.8-4.7l-8.3-17.6c-.3-.5-1-.8-1.5-1.2-.5.8-1.5 1.7-1.4 2.4a85 85 0 0 0 2.4 10.5c1 3 2 5.8 3.6 8.5 1.7 3 3.8 6 6 9 .4.5 1.7.3 2.6.4 0-1 .2-2-.1-2.7-.5-1.4-1.4-2.8-2.6-4.6m-138 405l6.7-.3c.6 0 1.2-.1 1.8-.2-.2-.6-.3-1.6-.7-1.7-1.8-.6-3.8-.6-5.4-1.4-4.7-2.4-10.4-3.2-13.5-8.4-.2-.4-3 .2-3 .4 0 3-.6 6.3.7 8.6 1.2 2 4.4 3.5 7 4.3 1.8.5 4-.5 6.5-1.3m-155 38l3.5-6.5c.7-1.5 2.4-2.7-.7-4-2.8-1.3-3.2-.1-4 2l-9 21.2c-.2.6.6 1.8 1.2 2.4.3.2 1.6-.2 2-.8l6-8c.3-.4.2-1 .2-1.5.1-1.3.2-2.7.8-4.5m407-242c-.6-.6-1-1.3-1.8-1.7L710 502l-1 3.3c-.1.5-.1 1-.2 1.4-2.6 7.5-2.6 7.5 5 6.4.7-.1 1.4.4 2.2.6l-1.8 1.7-2 1.4c1.8.4 3.6 1 5.4 1.2.8.1 2.3-1 2.3-1.3-.7-4-1.3-7.8-5-11.2m-408 299c.7-5.4 1.4-10.7 2-16 .1-1-1-2.2-1.4-3.4-.5 1-1.3 1.8-1.5 2.8-.6 2.6-.8 5.3-1.3 8-1.2 7-2.5 14-3.7 20.8-.2 1 .2 2.2.4 3.3.7-1 1.7-1.8 2-3a136 136 0 0 0 3.5-12.5M511.4 597c1.4-3 .6-6-2.3-6.7-1.4-.3-3.7 3-5 5-.8 1-1 2.6-1 4 0 2 .4 3.8.6 5.7 2.3-.7 5-1 7-2.4 1-.7 0-3.7 1-5.6M701 516.5l-2.7-4.8c-.3-.6-.5-1.2-.7-1.8.8-.2 1.7-.7 2.4-.5.5.2.6 1.4 1 2 .6.6 1.5 1 2.3 1.6.5-1 1-1.8 1.5-2.6l2.2-4.8c-1.3-.5-2.6-1.5-3.8-1.5-4.5.2-8 2.5-10.2 6.4-2 3.5-1.2 5.2 3 5.5 1.5.1 3 .6 5 .5m-201-319l5 7.8c.3.4 2.8-.1 3-.3.5-6-.4-11.5-4-16.4-.3-.5-1.4-.6-2-.6-.3 0-.7 1-.8 1.4l-1 8m-146 483c-1.6 3.3-3.4 6.5-4.8 10-.4 1 .3 2.4.5 3.6.8-.7 2-1.2 2.3-2l9.5-19c.3-.5 0-1.3 0-2-.6.2-1.4.3-1.6.8-1.8 2.7-3.6 5.5-5.8 8.7m213-158l-2 7.6c-.1.5 1 1.2 1.4 1.8.5-.5 1.2-1 1.4-1.4 1.4-4.2 3-8.4 4-12.8.3-1.4-.8-3.2-1.4-4.8-.1-.4-.7-.6-1-1l-.4 1.3-2 9m-53-208l-2.7-14.7c-.1-.8-.1-1.6-.1-2.4-.4 1-1 2-1 3.2-.2 1-.1 2.3 0 3.5l1 13.5c.1 1 1 1.7 1.7 2.6l1.2-2.5c.2-.6 0-1.3 0-3m-118 287l.6-4.4c-1 1-2 2-2.6 3l-5.7 12c-.3.7 0 1.8.1 2.7.8-.4 2-.6 2.3-1.2a106 106 0 0 0 5.3-12.2m-206 358v-4.2c.2-2.4.7-4.7 1-7 0-.4-.3-.8-.5-1.2-.2.3-.4.5-.5.8-.7 4.2-6.4 6.7-4 12 .5 1 .8 2 1 3.2 1-.8 2-1.7 3-3.5m302-265c-4.4 1.6-5.6 5.6-7 9.4-.2.7.6 1.7 1 2.5.3-.2 1-.3 1-.5 1-4.3 3.4-7.6 7.3-10 1-.5 1-2.6 1.4-4l-3.6 2.4M634.4 545l4.2-6.8c-2 .3-4.7-.1-6.2 1-1.4 1-1.7 3.7-2.5 5.7 1.3.2 2.7.3 4.5 0m-428 488l2 5c.5-.3 1.3-.6 1.3-1l-.3-6c-.1-1-.2-2-.6-3-.5-1.2-1.4-2.2-2-3.3-.6 1-1.7 2-1.8 3-.1 1.5.6 3 1.4 5M442 475.5c-.3-3.7-.6-7.5-1-11.2-.1-1-1.3-1.6-2-2.3-.3 1-1 2.2-1 3.3l2 11c.2 1 .4 1.7.6 2.5.5-.8 1-1.6 1.4-3.4m-3.5-90.5c.5-1 1.2-2.2 1.4-3.4.2-1-.2-2.3-.3-3.5-1 .6-2.3 1-3 2-1 1.2-1.7 2.6-2 4-.3 1.2.1 2.6.1 4a90 90 0 0 0 3.9-3M590 361.5c-.7 2-1.7 4-2 6-.2 1.6.6 3.3 1 5l2-3.8c.8-2.3 1.5-4.7 2-7 .2-1-.3-2.4-.5-3.6-.8.8-1.6 1.6-2.4 3.4m-89 0c.1 2.5 2.2 5-1 7.3-.4.3.2 2 .5 3 .1.1 2 0 2-.3l2-9c.1-1-1-4.2-3.8-1M604.4 381l-3.7-4c-.3 1.5-.5 3-.8 4.4-.1.3-.6.5-.6.7 0 1 .1 2.7.4 2.7 2 .2 4 0 6 0-.2-1-.4-2.3-1-4M487 213.5l.6-3.4c-1 .5-2 1-2.7 1.6-1.8 1.7-3.5 3.5-5.3 5.2-.7.6-1.7 1-2.5 1.3.5.6 1 1.7 1.5 1.7 1 0 2.2-.4 3-1 1.8-1.5 3.3-3.2 5.5-5.4m-234 568l-8.3 6.4c-.4.3-.3 1.7 0 2.3.2.4 1.7.8 2 .6 2.2-2.7 4.2-5.5 6.3-9.2m215-91c-3.7-1-4.4 3.2-7 4.4-.3.2.7 3 1 4.8.6-1 1.4-2 1.8-3 .7-2 1.6-3 4-2.6.6.1 1.4-.4 2-.6-.5-.8-1-1.6-2-3m-146 131l-.3-1.3-7.7 4.6c.7.7 1.8 2.2 2 2 2-1.3 4-3 6-5.4M569.4 550l.4-7.2c0-.6-1.3-1.2-2-1.8-.3.4-1 1-1 1.3l1 9c0 .4.6.7 1 1 0-.7 0-1.3.5-2.5m-101 135l-3.2 2.8 4.7-.3c.2 0 .5-.1.7-.3l3.8-3.3c.1-.1-.5-1-1-1.7l-3.5 2c-.3.2-.5.5-1.7.7M498 278.5l-1.8-2.2c-1.4 1.2-3.2 2.2-4 3.7-.5 1 .3 2.7.5 4l5.3-5.5m11 244c.3 2 .5 4 1 6 .2.7 1.7 1 2.6 1.4-.2-2.6-.4-5.2-.8-7.8-.1-.3-2-.4-3 .5m-54 29c.4-.4 1-.7 1-1a29 29 0 0 0 .1-4.7c0-.2-2-.4-2-.3l-1 6c0 .7 1.2 1.4 2 2v-2M498.4 405l1.4-8.6c0-.1-1-.5-1.7-.4-.4.1-1 .7-1 1 .2 2.5.6 5 1.4 8M460 714.5c3 3.4 4.8-.8 7-1.2.2 0 .2-1 .3-1.3l-6 .2c-.5.1-1 1-1.4 2.3M316.4 736c-.6-1.6-1-3.3-2-4.8-.2-.3-2-.1-2.5.4-.6.7-1 2.8-1 3 1.3.7 3 1 5.3 1.5m137-74l-5.3-.7c-.1.6-.4 1.7-.1 1.8 1.2.8 2.6 1.8 4 1.7 1-.1 1.7-1.8 1.6-2.8M540 367.5c1-1 2-1.8 2.7-2.8.2-.2-.4-1-.7-1.7-1.5.7-3.3 1-4.5 2.2-.7.6-.3 2.3-.4 3.6 1-.1 2-.1 2.8-1.2M204.4 1014l1 7c.5-2 .7-4 1.4-5.8 1-3-.3-2.4-2.5-1.2m396-587l-2.4-.6c.1 2-.1 4.3.3 6.4.1.6 1.8.8 2.8 1.2.3-.8.8-1.7.7-2.5a14 14 0 0 0-1.4-4.5M175 969.5c3.5 2 3.5-1.7 5-3 0 0-.7-1.2-1.2-1.3-2.6-.4-4 .6-3.7 4.4M543.4 615l4.5-6.4-1-.6a227 227 0 0 0-3.9 6c-.1.1 0 .3.5 1m-1-109l-2-3c-.5 1.8-1.2 3.5-1.4 5.3-.1.5 1.3 1 2 1.7.6-1.2 1.2-2.3 1.3-4m-26-310c.2.6.3 1.3.7 1.7 1 1 2.2 1.5 3.3 2.3-.2-1.4-.1-3-.6-4.3-.6-1.3-2.7-1.2-3.4.4m39.5-21.5c0-1.3.3-2.7-.1-4-.5-1.3-1.7-2.3-2.6-3.4l.1 3.6c.1 1.4.3 2.8.7 4 .1.4 1.2.4 2-.4M516.4 161l-3.6 1c-.8.4-1.3 1.3-2 2 .4.3 1 1 1.2 1 2.3-.8 4.5-1.7 6.8-2.6-.5-.4-1-1-2.5-1.3M591 278.5l-2-6.6c-.1-.4-1-.6-1.4-1 .1.4.2 1 .2 1.3.1 1.6-.1 3.3.3 5 .2.8 1.6 1.2 3 1.3m32.5-14.5c.2-.3.5-.5.5-.8l-1-6.2-2.2.7 2.7 6.3M604 499.5l2.3 3.5 1.5-4.4c-1.3 0-2.6-.1-4 1M312.4 857c4 .5 2.3-2.5 2.4-4.2 0-.6-1-1.2-1.8-1.8l-1 3.6c-.1.6 0 1.3.5 2.4M450 527.5l-.7-5.3-1.3 6c-.1.3-.1.7 0 1 .4.7.8 1.3 1.2 2 .3-.8.5-1.7.8-3.5m56-172V349c0-.4-.3-1-.6-1-.4-.1-1.2.3-1.2.4.4 2.5 1 5 2 7m.5 212.5l1.3-5.7c0 0-1.2-.3-1.2-.3l-1.5 5.2c-.1.2.3.5 1.5.8M480 700.5c0 1.7.1 3.4.2 5 0 .1 1 .1 1.6.1-.4-2-1-3.8-1.8-5.2M180.4 1021l-1 5 2.2-.3c.1-1.6-.1-3-1.2-4.7m360-560c.5-1 1.2-2.2 1.4-3.3.2-.8 0-1.7-.3-2.4-.2-.5-1-.7-1.3-1-.5 1-1.2 2-1.3 3 0 1.2.6 2.3 1.4 4m29 45c-.7.4-2 .6-2 1-.2 1.3.1 2.6.2 4l2.3-3c.2-.4 0-1-.5-2M500 269.5l-1.6 4.4c.8-.4 2-.7 2.3-1.2.3-1-.1-2.4-.7-3.2m-352 703l2.6-2.4c-.5-.4-1.2-1.2-1.5-1-1.4.6-2.6 1.5-4 2.2.8.6 1.5 1 2.8 1.2M552.4 430c3 .6 2.7-1.4 2.4-3-.1-.7-.8-1.3-1.2-2l-1.7 3.5c-.1.3 0 .6.5 1.5M516 126.5l2.2 2.5 2.7-2.6c-1.5-.1-3-.3-5 .1m81 286l3.3 2.5c.1-.3.3-.7.2-1l-1.5-4c-.5.7-1 1.3-2 2.5m-141 280l3.3 3.5c.2-.7.8-1.8.6-2-1-.8-2.3-1.4-4-1.5m146-174l-3-4.5-1 1c1 1.3 2.3 2.6 4 3.4M583.4 278c.2-.7.5-1.5.4-2.2a7 7 0 0 0-1-2.7c-.1-.2-1.2.2-1.8.3l.6 3c.2.6.4 1 1.7 1.7M446 501.5l-3.3-.7v2.3c1-.2 2.2-.4 3.4-1.6m100 22l-3.7.3 2 4c.6-1 1-2.2 1.7-4.3m50.5 63.5l-3.3-1.7c-.1.7-.5 1.6-.2 2 1.2 2 2.6 2.2 3.5-.4M541 553.5c.3-.3 1-.7 1-1 .1-1.5 0-3 0-4.6 0-.3-.3-.5-.4-.8-.5 1.2-1.2 2.4-1.5 3.7-.2 1 .3 2.2 1 2.7M140.4 919c3.5-1 1.3-3.5 1.5-5.3 0-.1-.6-.2-1-.3-.4 1.7-.7 3.4-.6 5.6m40 63H178l1.7 4c.4-1.2 1-2.3.8-4m377-386l2.3-2.7-4 .3c.2.8.4 1.6 1.7 2.3m-53-313l2.4-2.2c.2-.3-.5-1.2-.8-1.8-.7.7-1.5 1.4-2 2.2-.3.5-.4 1.2.5 1.8m60 251l-.5 3.2 2 .2c-.2-1-.4-2.2-1.6-3.4M506 343.5l1.4 1.4c.2-1.6.5-3.3.5-5 0-.3-.8-.6-1.2-1a43 43 0 0 0-.7 4.5M610.4 574c-.2 1-.5 2.2-.4 3.2.1.6 1 1.2 1.5 1.7.2-1 .4-1.8.4-2.7 0-.7-.3-1.5-1.5-2.2m-176-147l3.5-1.5-.7-1.5c-1 .8-2.2 1.7-2.8 3M558 626.5l-2.6 2.4c1 .2 2 .8 2.6.5 1.2-.7 2.8-2 0-2.8m9.5-143.5l.7 2.7c.6-.4 1.6-.8 1.7-1.2 0-1.2-.4-2.3-.6-3.5l-1.8 2m-64 34l1.4-3.6-2.2-.4a14 14 0 0 0 .8 4m27.5-13.5l-.6 4.4c.5-.2 1.5-.4 1.5-.5 0-1.5-.3-3-1-4M444.4 663l-1 2 3.3.7c-.4-1-1-1.8-2.3-2.7M507 210.5l2.4.6.2-3c-1 .5-1.7 1-2.6 2.4M591.4 577c.5-.5 1-1 1.4-1.4.4-1 .6-2.2.8-3.4 0 0-.8-.3-.8-.2a25 25 0 0 0-1.8 3c-.2.4 0 1 .5 2m-59-100l3.4.6-.1-2.3c-1.3.4-2.5.8-3.3 1.7M566 587.5l-3-1c-.1 0-.5.8-.7 1.3 1.2.2 2.4.4 3.7-.3m-128-130l.3 1.3c.6-1.3 1.3-2.5 1.6-3.8.1-.5-.8-1.2-1.3-1.8a44 44 0 0 0-.6 4.4M138.4 908l2.4.6-1.2-3.4c-.6.8-1.2 1.5-1.2 2.8M237 802.5l-3 .5.8 2c.7-.5 1.5-1 2.2-2.5m259-394l3-.5-.3-1.8c-1 .4-1.8 1-2.7 2.3M616.4 571l2.5-1.7c.1-.1-.5-1-.8-1.3-.7.8-1.5 1.7-1.7 3M506 391.5l2.2 2.5c.3-.5.8-1.3.8-1.3-.8-.6-1.6-1-3-1.2M232.4 859l2.5-2.2-1.3-.8c-.6.8-1 1.6-1.2 3M139 938.5c.7-.5 1.7-1 2-1.6.2-.5-.7-1.3-1-2-.2.8-.5 1.7-.7 3.5M503.4 289l-.5-3-1.8.3c.4 1 1 1.8 2.3 2.7m-60 202l-1-3-1.4.8c.5.7 1 1.5 2.5 2.2M545 348.5l1.7 2.5c.1.1 1-.5 1.3-.8-.8-.7-1.7-1.5-3-1.7m-407 593l.6 3.5 1.3-.4c-.5-1.2-1-2.4-2-3M314.4 725l-2.3-.7.2 2.6c1-.5 1.7-1 2-2m-13 11c-.3 1-.7 2-1 3 0 .1 1 .3 1.3.5 0-1 0-2-.4-3.6M510 533.5l.5 2.5 1.5-.7c-.5-.8-1-1.5-2-1.8m-233 319l2.8-2.2-1-1c-.6.7-1.2 1.5-1.8 3.2m319-277l1 2.5 1.8-2.4c-.8-.2-1.6-.4-3-.1M496.4 414l1-3c0-.2-.8-.5-1.3-.8-.1 1-.2 2.2.3 3.7m51.5 22.5c-.2-.1-.4-.3-.7-.3-.1 0-.3.2-.3.3l.6 3.5c0 0 1 0 1 0 0-1 0-2-.5-3.4m-256 336l.7 2.5 1.3-1c-.5-.7-1-1.4-2-1.6m207-398l.7 2.5 1.3-1c-.5-.7-1-1.4-2-1.6m111-75l-2 .5.8 2c.4-.5.8-1 1.2-2.5m-60 241l-.7-2.5-1.3 1c.5.7 1 1.4 2 1.6m-37 0l-2 2 1.7 1.3c.1-.8.2-1.5.3-3.3M507.4 325v-3c0 0-1 0-1 0 0 1 0 2 1 3m6.5 228.5l-2 .5.8 2c.4-.5.8-1 1.2-2.5m81.5 7.5l-1.3 2.7c.6 0 1.5.1 1.6-.2.3-.6.1-1.4-.3-2.6M527 628.5l1.7 2.3 1-1c-.8-.6-1.5-1.2-2.8-1.2M504.4 572v-3c0 0-1 0-1 0 0 1 0 2 1 3M579 240.5l.7 2.5 1.3-1c-.5-.7-1-1.4-2-1.6m21 344l-1.7-1.3v3.6c.6-.4 1-1 1.7-2.3m4.5-.5l1.5-2-1.3-1c-.2.8-.4 1.7-.2 3M540 561.5v2l1.4-.5c-.3-.7-.6-1.4-1.4-1.6m-.5-307.5l2.5-.6-.4-1.3c-1 .5-1.7 1-2 2m3.5 285.5l-2-1-.5 1.4c.7 0 1.4 0 2.6-.4m56-10l.6-1.4c-.6.2-1.4.1-1.6.5-.4.7-.4 1.6-.5 2.3.3-.3.7-.6 1.5-1.5m-93-11l-.7 2.3 1.3.1c0-1-.1-2-.6-2.4m94-15c1-.2 1.8-.4 2.7-.7 0 0 0-.4 0-.7-1 .1-1.8.2-2.6 1.4m-127 202l-1.3-2.3-.7.7c.4.7 1 1.4 2 1.6m4.5 2.5l1.5-1.2-1-.8c-.5.7-1 1.3-.6 2M625 269.5l.7-1.3-2.7.7c.5.4 1 .8 2 .6z"/><path d="M881 173l2 14.6c.1 1-.4 2.3-1 3-1.4 1.5-3.3 2.5-4.8 4-2.5 2.3-4.7 2.2-7.2-.1-1.2-1-3-1.6-4.4-2.3-.8 1.8-2 3.6-2.3 5.5-.4 4 .2 8-.2 12-.3 3.4 1 3.7 3.8 3.6 2.7-.1 5.5.3 8.2.7-.3.3-1 .2-1 .3-1 4.6-3.7 2.3-6.3 2-2-.1-4.2 1-6 2-.7.3-1 1.8-1.4 2.7l4.7-.2c-.2.6-.3 1.3-.7 1.7-3.3 2.7-3 5.7-2.5 9.7 1 6.2.2 12.6.3 19 0 1 .4 2 .6 3l1.4-2.4a4 4 0 0 1 5.6-1.6c6.4 2.8 12.3-.4 18.3-2 .4-.1.7-.4 1-.6-1.2-.8-2.3-2-3.5-2.3l-15.2-2c-.8-.1-1.7-.2-2.2-.6-1-1-2-2-2.8-3 1 .2 2 .6 3 .7l12.6 1a8 8 0 0 0 8-7.3 64 64 0 0 0 1-11.5c.1-2.3.6-5-3.4-4.3-.6.1-2.3-3-2.4-4.7v-16c0-1 .8-2 1.3-3 .7.6 1.5 1 2 1.8 1.7 2 1.4 2.8-1 5.2-.3.3.1 1.4.3 2l2.2 5.8c.7-.8 1.4-1.5 2-2.3 2-2.8 6.8-2.3 8.7 1.7a82 82 0 0 1 7 19c1.7 7.2 2.3 14.8 3 22.2.2 2 1.3 4.8-2.4 5.6-.3.1.3 3.7.4 5.6 0 .6-.2 1.3-.2 2-.2-.6-.4-1.2-.8-1.7-.5-.7-1.6-1.8-1.7-1.7-1.5 1-3 2.2-4.2 3.6-.4.5.1 2 .2 2.8l2.4-1c1-.3 2-.4 3-.6-.7.8-1.2 1.8-2 2.4-.7.6-1.7 1.4-2.4 1.2-4-.7-5 1-4.4 4.6.1.4-.8 1-1.2 1.5.1-.6.4-1 .2-1.7-.2-.8-.6-1.6-1-2.3-.3.6-1 1.2-1 1.7l-2 44.7c0 .8.2 1.6.3 2.4l1.7-2c1-1.7 1.8-3.6 3-5.3.7-1 1.8-1.6 2.8-2.4.4 1.3 1.4 2.7 1.2 4-1 6.8-3.7 13-9.2 17.6-.7.6-1.6 1-2.4 1.4.7.3 1.5.4 2 .8.1.1-.1 1-.3 1.3-3 7.8-4.2 16.7-13.2 20.6-.4 5-6 2-7.8 5.2-.2.3-1.8 0-2.6-.3-.2-.1.1-1.3.1-2v-4c.1-1 .3-2.3 1-3 5-5.7 3-12.6 3.4-19 0-.3-.3-.5-.4-.8l-1.6 1.7-13.3 18c-.7 1-2 2-3 2.2-5.5.7-4.5 4.7-4.7 8.3l-1 15c-.5 4-3 4.6-6 2-1-1-2-3.7-4-1-.5-.5-1.2-1-1.4-1.5l-3.6-10c-.3-.7-1-1.3-1.3-2l-.6 2c-.3 1-.7 1.7-1 2.6l-.5 2.3-1-5c-.1.8-.2 1.6-.5 2.3a10 10 0 0 1-1.7 2.8l-3 2.5c.6-1 1-2.2 2-3 2-2-.2-6 4-7 .1 0-.3-2.4-.4-3.7a35 35 0 0 0-3 1c-5.4 2-4.8 7-5.3 11.2-.6 4.7.4 9.5-.3 14-.7 4.8-5.3 6.3-9.2 3.6-.6-.4-.6-1.7-.6-2.6l-1-18c0-.8-.4-1.5-.5-2.2-.8.5-2 .8-2.3 1.5l-2 10c-.5 2.8-.7 5.7-1.6 8.3-.6 1.5-2.4 2.6-3.7 4-1.2-1.4-3-2.6-3.4-4.2-1.7-6.6-2.2-13 .5-19.7 1.4-3.4.7-7.7 1-11.6.1-1 .4-2 .1-2.8-.5-2-.8-5-2-5.3-3.8-1-4-3.6-4-6.6l-.8-23c0-1.5 1.4-3 2.2-4.5l2.5 3.3 3.5 5.5 1.6-6.7 4.7-23.5c.5-3 .1-6 .3-9l3-27.8c.3-1.4 1.6-2.6 2.7-3.7 1.6.3 3 .3 4.2.3l-4-1.6c9-5.5 15-12.8 18.2-23a163 163 0 0 1 11.1-28.3c3-6 8.7-10.4 13.2-15.5.2-.2 1.4.5 2 1l2.5 1.4c0-1.4.4-3.7-.2-4-2.8-1.3-.6-2.7-.1-3.6 1.7-3.3 4-6.4 5.5-9.7 1.4-3 2-5.7-3-5.3-.7.1-1.5-.3-2.3-.5.6-.5 1.5-1.5 1.8-1.4 4.5 1.8 8.5-.1 12.8-.7 2.4-.3 5.8 2.5 7.7 4.8 3.7 4.3 6.4 9.4 13.3 9 .6 0 1.4 3 2 4.4 1.4-3.2 3.2-2.3 4 0 1.3 3.3 1.6 7 2.7 10.4l8.6 25c3 12 5.2 24.5 7.7 36.8.1.7-.3 1.5-.4 2.3l-11.7-42a18 18 0 0 0-11.4-12c-6-2-10.7-5.2-8.5-13 .5-1.7.1-3.6.3-5.7 1.6.4 3 1.2 4.3 1.8.5.2 1.2.3 1.7.1.3-.1.7-1 .7-1-1.4-1-2.7-2.3-4.3-3-.6-.2-1.7 1.2-2.6 2l-4-7.2c-.2-.3-1.6.1-2.7-.1.4-4.2-2-5.5-5.2-5.7s-7-.7-7 4.3c0 .5-.4 1.5-.6 1.5-4.6.2-2 3.2-2 5 .2 1.8 1 3.5 1.5 5.3.5 2.5.5 5 1.3 7.4 1 3 4 4.3 6.3 2s4-6 4.2-9c.5-4.7-3.6-8-7.4-6.6-1 .4-2.2.4-3.4.6.8-.8 1.4-2 2.4-2.4 1.2-.6 2.6-1 4-1l5.6-1m14.5 45c.5 4.6 1.3 9.2 1.4 13.8.2 8.7 0 17.5.2 26.3 0 .6 1.5 1.3 2.3 2 2.2-3.7 5.7-7.2 6.4-11.2 1.6-10-3.8-19.2-5.4-29-.6-3.5-2.6-7-4-10.2-.5-1-1.8-1.8-2.7-2.7.1 1.4 0 2.7.2 4l1 7-2.5-5.8c-.2-.5-1-.7-1.5-1-.1 2-.7 4 0 5.6.6 1.3 2 4.2 5 1.3m-52 133c.6-.6 1.6-1 1.6-1.7l1-15.4c0-1.4-.8-4.4-3.7-2-.1.1-1.8-1.2-2-1.8-.1-1.3.5-2.7.8-4-2-.3-3.8-1-5.5-.7-1 .2-1.3 2.5-2.4 3.8-4-2.6-7 .5-10 2.2-.5.3-.7 1-1 1.6l-.2-2.3c0-.8.3-1.6.5-2.4-.8.4-1.8.7-2.4 1.3-1.7 2-2.7 1.8-3.2-.8l-1-4.5c-.3-1-.8-2-1.2-3l-1.7 3-3 6.4c-1-5-4.4-1.6-6.4-1.3-1.7.2-3.4 2.2-4.5 3.7-.8 1.2-1 3-1 4.5-.2 2-.2 4 .2 6 .1.5 2.4 1.2 2.5 1 1.2-1.7 3-3.6 3-5.5 0-4.6 1.4-7.5 6.2-7.6l-4 7.4c-.4 1-.1 2.4-.1 3.6 1.5-.1 3.6.3 4.3-.5 1.5-1.7 2.3-4 3.3-6l1-2.8c.5.5 1.3 1 1.3 1.4.1.8-.2 1.7-.5 2.5l-5 14c-.2-.4-.5-.8-.5-1 .1-4.4-1.6-3.2-4-1.5-1.6 1.2-2.6 4-5.5 2.7l.1 7.8c0 1-.8 2.5-.3 3 .8.8 2.3 1.4 3.4 1.2 1-.2 1.7-1.5 2.2-2.5.3-.7-.3-2 .1-2.4 1.2-1 2.6-2 4-3 .4-.2 1.2.2 1.8.4-1 1-2 1.8-2.6 3-.6 1-.8 2.2-1 3.4 1-.2 2.7-.1 3.3-.8 3.5-3.6 2.8.5 3.5 1.8.7 1.4 1 3 1.5 4.3.5-1.6 1.3-3.2 1.4-5 .1-1.3-.8-2.6-1.2-4-.2-.7-.5-1.4-.3-2l2.6-7c.2-.4.4-.8.5-1.2.2.4.3 1 .5 1.3.6 1.4 1.6 2.7 2 4 .2 1-.3 2.3-.6 3.4.6 0 1.7.4 2 .1.7-1 1.7-2.4 1.6-3.6 0-1.2-1.2-2.4-1.6-3.7-.3-1-1.2-2.8 1.4-1.7.2.1 1.3-1 1.3-1.3 0-1.2-.3-2.4-.7-3.6-.1-.2-1.5-.2-1.8.2-.6.7-.8 1.7-1 2.6-.1-1.3-.3-2.6-.3-4v-5c0-1 0-2.7.4-2.8 2.2-.7 2.7.5 2.7 2.6 0 .8 1.5 1.5 2.3 2.3-.6-5 3-6.7 6.5-8.6.2-.1 0-1 .5-1.4-.1 1.4 7.3.5 1.2 4-.2.1.2 1.6.6 2l4.6 5-3.6 1.3c-.2.1-.3.5-.4.8l-1.4 3c-.6-1.2-1.4-2.3-1.6-3.5-.3-1.4.2-3-.2-4.5-.2-.7-1.3-1.3-2-2l-1.2 1.7c-2.2 3.5-4.3 7-1.4 11.3.3.5-.1 1.6-.2 2.4l-1.4-1c-.4-.2-1.2-.3-1.3-.1-.3.5-.6 1.5-.4 1.7 1.7 1.5 1.8 2.8.2 4.5-.1.1.8 1.6 1.2 1.6 3.2-.1 6.5-.5 9.7-.5 1.2 0 2.5.7 3.8 1-.6.7-1.4 1.4-2 2-.4.6-.6 1.4-1 2 2 .1 4 .5 6 .3.4 0 1-2 1-3.2-.4-2.6-1.3-5-1.4-7.7m.5-44.5c-.8 1.8-2 3.6-2.4 5.5a48 48 0 0 0-.6 8.5c0 .3 1.6 1.2 2 1 3-1.7 7-12 6.3-15.7-.1-.5.1-1 .2-1.7.4.3 1 .6 1 1l.5 9.5c.1 1.2.4 2.3.4 3.5.2 2.2 1.2 5 .2 6.6-3.8 5.4-1.3 10.7-.6 16 .1 1 1.3 1.6 2 2.4.3-1 1-2 1-2.8.4-5.7-.1-11.6 1.2-17 2-8.5-1-16.3-2.2-24.4-.1-.6-.6-1.2-1-1.8-.7.4-1.5.7-2 1.3-2 2.5-4 5-6 7.2l1.4-3.4c2.5-5.2 7.5-8.8 7.2-16-.2-4.6.4-8.8-1.8-13.3-1-2.2-1.5-5.7-1.4-8 .2-11.8 1.5-23.5 2.7-35.2.4-3.5 2-7 2.8-10.3.3-1.2.7-2.4 1.6-3.6l3.4-.4-.2-1.3-4.2 1.8c-8 4-9.2 12.6-12.5 19.7-4.8 10.2-11.3 18.7-21.8 23.8-2.6 1.3-5.2 4-6 6.8-2 6-2.8 12.5-4.2 18.7l-9 38.2c-.2 1 .1 2.4.6 2.8 2.7 1.8 5.5 1.5 7.2-1.3 1.4-2.3 2-5.2 3-7.7.6-1.2 1.8-2 2.7-3l1.2 3.6c.2 7 1 7.5 7.6 5.4.7-.2 1.4-.7 2-1 .1 0 .8.7.7 1-.2 1-.6 2-1 2.8 1.4-.3 3-.3 4-1 .8-.4 1.7-2.4 1.5-2.6-3-3 1-3 2-4.3 1.2-1.6 3-2.8 4.2-4.4l6-7.2m26-20c0-.5-.2-1.2 0-1.5 1-1 2.2-2 3.3-3 .5 1 1.4 2 1.6 3.2l1 8 1 36.6c0 2.3-1.5 4.7-2.2 7-.4 1.4-.8 3-.5 4.2.1.5 2 1 3.2 1 3.2.2 7 1 5.8-4.6-.1-.6.7-1.3 1-2 1.6-5 5-10.2 4.5-15a101 101 0 0 1-.6-28.8c.1-.4.7-1.2 1-1 2 .3 2.7-.4 2-1-3-2 .1-3.7.2-5.4l1-19.6c.3-4.4-1.8-6-6-5.6l-7.6 1c-.4 0-1-.2-1.4-.3.5-.2 1-.5 1.4-.6 3-.7 6-1 8.5-2.2 1.2-.7 1.2-3.5 1.8-5.4l-2.8 2c-1.4.7-2.8 1.2-4.3 1.6-4.8 1.3-9.8 2.2-10.8 8.5-.3 2-1.4 3.7-2.4 5.5l-9.3 16.6a46 46 0 0 0-4 16.2c0 8.8 1.7 17.5 2.8 26.2l1.4 9c1.5-2.8 4-5.5 4.4-8.5l6-42m-4-98l-2-6.5-3.8 4c-1 1-2.6 1-3.6 2-3.5 3.2-8 6-10 10-5 9.2-8.2 19.2-12.8 28.6-3.3 6.7-4.8 14.8-12.6 18.6-.7.4-1.5 2.2-1.2 2.8.6 1.2 2 2 3 2.8 1.2-3.7 2.5.1 3.7 0 .8-.1 1.7-.2 2.2-.7l5.8-6.6c4.6-8 8.8-16.3 13.3-24.4 1.3-2.3 3-5 5.2-6 5.3-2.7 7.8-6.4 6.5-11.6-2-8.6-1.7-9.4 6-13M862 259c-.5 2.5-1.3 5-1.3 7.5 0 1.5 1 3 1.6 4.5l2.2-4.7c.6-2.3.7-4.7 1.2-7 .2-1 .8-1.7 1.2-2.5l-4-.8c-.5 0-1 1.5-.8 3m33-70c-3.3-.8-4.8 1.6-3.3 3.5 1.7 2.3 5 3.4 7.8 4.8.2.1 1.3-1.3 2-2-.8-.5-1.6-1.5-2.3-1.4-4.2.8-4-2-4.2-5m-77 198.5v-6c0-.8.3-1.6.5-2.4-1 .1-3-.2-3.2.3-.8 1.6-1.5 3.7-1.2 5.3.3 1.3 2.2 2.2 3.8 2.8m61.5-43.5l-7.3 7.3c-.2.2-.2 1.2 0 1.3.5.3 1.6.6 1.8.4 2.3-3 4.4-6 5.6-9m-8.5-18.5l1.7 4.5 3-4.3c.2-.4-.1-1-.2-1.7-1.3.3-2.7.6-4.5 1.5m-62-60c-.1.8-.5 1.6-.3 2.3.2 1 1 1.7 1.4 2.5l2-5.2c.1-.1.1-.4 0-.5L811 262c-.6.8-1.2 1.5-1.7 3.3m.5 7.5c-2.7.7-3.5 2-1.5 4.4.4.5 1.4.5 2 .7 0-1.5 0-3-.5-5m.5-14.5l3.7 2.3 1.3-2.4-4.2-1.5c-.2-.1-.5.3-.8 1.5m51 18l-2.4-1.6-1.8 3.4a26 26 0 0 0 4.2-1.8m-57 92l-.7-2.5c-.8.5-2 1-2.2 1.5-.3 1 .1 2.2.2 3.3 1-.4 1.8-1 2.7-2.3m85-125l3-3c.1-.2-.4-1-.7-1.4-.7 1.2-1.5 2.3-2.2 4.5m-22 10.5l2.3-.3-3.3-2.7c0 1 0 2 1 3m29-69l1 2 1.6-1.6c-.7-.3-1.3-.6-2.5-.4m-51 190l2.5-2.2-1.3-.8c-.6.8-1 1.6-1.2 3m25-67c-.5.2-1.4.5-1.4.7.1.8.5 1.5.8 2.3.4-.8.8-1.7.6-3M858 280.5l-.6 2.4 1.6-.4c0-.8-.3-1.6-1-2m-.5-25.5l-1-2-1.4 2.4c1 0 2 0 2.5-.4m17 63l.1 3h1c0-1 0-2-1-3M826 253.5l-1.6-1.4-1.2 1.7c.8.1 1.5.2 2.8-.2m64 43l.7-2.3-1.3-.1c0 1 .1 2 .6 2.4zM680 38l-27-6c-1-.2-1.5-2-2-3.3-1.7-4.3-3.4-4.2-7.7-2.8-3.5 1-7.8.6-11.6.2l-36.5-5.7c2-.6 4-1 5.8-1.3 4-1 9.4 4.3 12.2-2.7.1-.2 1 .1 1.6.1l7.3.6c.6 0 1.2-.3 1.8-.4-.5-.5-1-1.3-1.4-1.4-3.7-.5-7.4-3.4-11.3-.1-.7.6-2.2.3-3.4.3-.2 0-.5-1-.5-1.3.2-.7.6-1.4 1-2l-2.5.8c-2 .3-5 1.4-6 .5-2.3-2.6-5-2-7.7-2.3L554 8c-.7 0-1.5 1-2.2 1.5 1 .5 2 1.4 3 1.3 1.7 0 3.4-1 5-.8a106 106 0 0 1 12.7 2c7.8 1.7 16.7.3 22.4 8h-10.5c0-.4-.1-.8.1-1 1-2.4.2-3.8-2.3-4l-20.6-1c-4-.3-7.8-1.7-11.7-1.8-4-.2-7.8.6-11.7 1l-15.6 1c-.8.1-2-.3-2.5.1-3 2-6 2.7-9.4 1-.3-.1-1 1-1.7 1.5.6.5 1.2 1.3 2 1.4 12 1.8 24 3 36.3 1.2 7.6-1 15.4-.2 23-.2h7.2c.5 0 1 .2 1.3.3-.3.2-.6.5-1 .6-2 .4-3.7 1-5.6 1l-42.6 1c-12.7 0-25.4-.2-38-1-4-.3-8.5-.3-12.7-2.8-2.6-1.6-7-.4-10.6.1-4 .6-7.8 2-11.8 2.8-1.4.3-3.4.8-3.3-2 0-.1-2-.3-3.3-.5.2.6.7 1.2.7 1.8s-.3 1.6-.6 1.7L364.6 38c-1.4.2-3-.6-4.4-1 1-.5 2-1 3-1.4L454 17c.7-.1 1.3-.5 2-.8-.6-.5-1.2-1.2-2-1.6l-5-2L511.7 2c2.3-.3 4.7-.1 7 0 .2 0 .3.8.6 1.2.5.6 1 1.2 1.6 1.8l2-2.2c-2.6-2.7.3-1.8 1-1.8 13.4-.4 26.8-1.5 40-.8l38.7 5.5L688 34c.8.2 1.2 1.3 2 1.8 1 .7 2.3 2.2 2.7 2 5.7-3.6 10.7.7 16 1.3 9.4 1 18.6 3.6 28 4.7l40.8 4c1.8.2 4-.3 5.5-1 2.6-1.2 4.7 1 6.7 1 11.2-.2 22.5-1 33.7-1.7l14-1c2.8-.2 3 .5 1.6 3-2.2 4 .4 4.6 3.6 4l82.2-14c1-.2 2-.2 3 .3 5 3 8 3 13.2 1 1.4-.5 4.8-4 6.4.6.1.2 1 .3 1.4.1l10.6-5.7c3.2-1.4 6.8-2.2 10.4-3.3-2 7.4-8.4 9-14.7 10l-40.8 4a470 470 0 0 1-11.6 1c-.8.1-2 .1-2.5-.4-1.5-1.4-1.6-2-2.6.7-.5 1.3-5 1.4-8 1.7l-53 6c-1 .1-2.7.3-3 1-4.2 9-13 5-19.6 6.7-10.7 2.6-22 3.6-33 5.2-3.8.5-7.7.7-11.6 1-.5 0-1-.3-1.7-.5l1.8-.4L812 56c3.8-1 8-.6 11.8 1.8.3.2 1.6-.5 1.7-1 .3-1 .1-2.3.3-3.7 1.4-.4 2.6-.4 3.7-.7 1.2-.3 2.2-1 3.3-1.5s2.3-.8 3.5-1.2c-.3-.5-.4-1.2-.8-1.3-1.3-.4-3-1-4-.7-2.4 1-4.6 2.8-7 4.2-8 2.8-16 2.4-24 2l-49.3-4-33.8-4c-11-1.8-22-4.4-33-6.7-1.6-.3-3-.5-4.4-1l2.8-1c-.5-.4-1-1-1.6-1.2-1.4-.3-3-.4-4.4-.5l3 2.5M504 12.5l-.2 3.5 2.6-1-2.4-3.6c3.3.1 6.8 1.8 9.7-1.3.1-.2 1.3.8 2 1 1.2.4 2.5 1 3.6.8L535 9c1.5-.4 2.6-2 4-3-1.6-.3-3.2-1-4.7-.7L502.7 9c-1 .1-2.2-.1-3.2.1s-1.7.7-2.6 1c.7.6 1.3 1.6 2 1.7 1.6.3 3.3.1 5 .6M632.4 19l-5.5-.2 4 2.6c.4.2.8.5 1.3.5l6.7.4c-1.8-1-3.7-2.3-6.5-3.4m-150-3c.2-3-2-4-5.3-2.6-.8.4-1.5 1.3-2.2 2l2.6.7c1.3.1 2.6 0 5 0M557 2.5V1c-.7 0-1.3-.1-2 0-1 .2-2 .3-3 .7-.2.1 0 1.2.1 2 1.5-.2 3-.4 5-1M484.4 16l4.5-1-.8-2c-1.4.8-2.8 1.7-3.7 3m99-13L581 6.7l4-1.7c.2-.1-.3-1.3-1.5-2m-7 0L575 5.6l2.6.2c-.2-.8-.5-1.5-1.2-2.8m-107 13l1-1-3.3-.6c.5.5 1 1 2.4 1.6m-10-1l2.4.6-.1-2.3c-1 .4-1.8.8-2.3 1.7M736 45.5l-3 .1v1c1 0 2 0 3-1z"/><path d="M970.2 31l23.6-7 36.5-6a435 435 0 0 1 46.6-1c11.6.3 23.4 1.5 34.8 4a585 585 0 0 1 50.4 13.5l45.7 16.4a111 111 0 0 0 39.2 7c2.3-.1 4 .4 3.3-3.4-.6-3.8 3.3-2.7 5.4-2.4l11.3 3c1 .2 2-.2 2.8-.3l-2.4-.7c-.8-.4-1.6-1-2.4-1.4 1-.1 1.8-.4 2.6-.3L1368 65c17.3 2 34.3 5 49.7 14l2.2 1.6-58-13.4c-12.5-2.5-25.2-3.5-38-5.2l-16.2-2c-1-.1-2 .3-2.8.4 1 .5 1.8 1.3 2.8 1.5l17 3.5c-.7.2-1.4.6-2 .5-6.7-.6-13.5-1.2-20.2-2-1-.1-1.7-2-2.7-3-.6-.7-1.3-1.7-2-1.6-.7 0-1.3 1-2 1.7-1 .8-2 2.2-3 2-6-.4-11.8-1.5-17.7-1.8l-48.2-2c-1 0-2 .4-3 .6 1 .4 2 1 3 1.3l53.8 10.2c18.3 4.2 36.4 9.3 54.3 15l62.4 22c1 .3 1.6 1 2.4 1.4-1 0-2 .2-3-.1L1326.5 86c-.6-.2-1.3-.1-2-.1l-1.6-.3c.3.4.6 1 1 1.2l49 19.5c.7.3 1.4.7 2 1-1 .1-2 .5-2.7.2l-28-8.7-40.3-11.4c.7-.2 1.3-.5 2-.6a49 49 0 0 1 3.8-.4L1306 85l-139-40c-.4-.1-1-.3-1.3-.5.4-.2.8-.4 1.3-.5l6.7-.6-21.8-7 1.5 4.5c-.8-.3-1.7-.4-2.5-.8-11.7-6.6-24-11.4-37-14.3l-12-2.7c-1-.3-2.2-1-3.3-1.6-.5-.2-1.4-.4-1.4-.3-1 2.7-2.8 1.5-4.8 1.4a128 128 0 0 0-19.7.2l-22.7 3.4c-.7.1-1.5-.3-2.3-.5.7-.4 1.3-.8 2-1l12-3.5c1-.3 2-1 3-1.5-1-.2-2-.5-2.8-.5l-34.2 3c-11.6 1.7-23 4.5-34.6 7-1.2.2-2.2 1-3.3 1.5 1 .5 2.3 1.4 3.4 1.4 3-.1 5.7-.6 8.6-1 .6-.1 1.3.5 2 .7-.3.5-.5 1.4-1 1.6-2.8 1.3-5.8 3.7-8.5 3.4-5-.6-9.7-3-14.6-4-3-.8-6.3-1-9.7-1.6m347.2 57c-1.4-.7-2.7-1.6-4-2-.6-.1-1.5 1-2.3 1.3 1.2.6 2.3 1.4 3.6 1.6 1 .2 2.2-.3 2.8-1m-.5-2.5h5v-1c-1.7 0-3.3 0-5 1m-40-26l3 .1-.1-1.3c-.8.2-1.5.5-2.8 1.2zM1185 754c12 1 21.5 8.4 32.4 12 1.6.5 3.4.7 5 1 .8.2 2.3.4 2.4.8 1 4.8 6 3.8 8.6 6 1.5 1.2 3.7 1.4 5.5 2.2.7.3 1.3 1 2 1.3-.8 0-1.6.1-2.3-.2l-12.6-4.6c-.3-.1-.5-.6-.7-.6-2.5.4-5 1-7.4 1.4 1.8 1.2 3.5 2.7 5.4 3.5l12.3 4.8a809 809 0 0 1-27.2-5.8c-.5-.1-1-.5-1.3-.7 1-.6 2-1.6 2.8-1.7 1-.1 2 1 3 1.3 2.5.7 3.6-.2 3.6-3 0-.3-.1-.8.1-1 .8-1 1.6-1.7 2.4-2.5-1.4-.2-3-.6-4.2-.5-1 .1-1.8 1-2.7 1.4l1.5 1.4c-1-.3-3-.6-3-1-.4-5.5-5.5-6.4-9-8.5-3.4-2-7.2-4.8-11.8-3-.7.3-1.3.7-2 1 .5.5 1 1.2 1.4 1.4 4.6 1.7 9.3 3.3 14 5 1.3.5 2.3 1.6 3.5 2.4l-3.7-.4c-2-.3-4-.8-6-1-1.7-.1-3.4.3-5 .5 1.2 1.5 2.2 3.3 3.7 4.3 1 .7 2.8.4 4.3.6l2 .2-1.4 1.3c-.8.5-1.7.8-2.6 1.2 1 .6 2.3 2 3 1.7 3.8-1.2 6.6 1 9 3s7.7-.4 7.3 5l2.6-.5c.7-.2 1.5-.8 2-.7l31.5 8.4c1.5.4 4.2 1 4.2 1.4.1 4.4 4 4.4 6.3 5.3l16.8 5.2c4.2 1.6 7.8 5.2 13 3 1.3-.6 2.7-.7 4-1l-2.8 4.6 3.4.3 3.2.7c-1.3.4-2.8 1.5-4 1L1284 807c-2.6-.7-5.6-.4-8.3-.6-.4 0-.6-.8-1-1-.6-.5-1.3-1-2-1.3l-30.8-10c-3.8-1.3-7.8-2.3-10.8-5.7-.8-1-4.2.7-6.2.3l-13-3.8c-1.2-.4-2.5-1-3.7-.8-4.4.4-7-1.5-7.7-6-.1-.4-1.6-1-1.8-.7-4.3 4.3-7.5 1.8-11.4-1a31 31 0 0 0-11.2-4.3c-4.6-1-8-6.6-13.2-4-12 5.8-24.8.8-37 4-1 .2-1.6 1-2.5 1.3 1 1 1.8 2.5 2.7 2.5h16.5c1.3.1 2.5 1.6 3.8 2.5-.8.8-1.7 2.4-2.4 2.3l-27.3-4c-1-.2-2-.8-3-1.2 1-.3 1.8-.4 2.6-.8 1.5-.8 3-1.6 4.3-2.7 1.6-1.5 2.8-3.5 4.3-5.2 1-1 2-3 3.3 0 .2.6 1.7.6 2.5 1l.7-5c0-.6-.7-1.7-1.3-2-1-.3-2.3-.1-3.5-.1-.6 0-1.5.1-2-.3-2-2-1.8-1.6-4.5-.8-2.4.7-5 .8-7.6 1-.4 0-1-1-1-1.5 0-1 .3-2.3.5-3.4l-2.8 2.7c-.6.7-1 2-1.5 2l-17.4 2.5c-1 .2-2 1.6-2.7 2.6s-2.4 2.7.7 3.3c2.4.5 5 5 7-.5.1-.2 1-.3 1.2-.1.4.8-2 3.2 1 2.2a13 13 0 0 0 5-3.6c.6-.6.4-2 .5-3.2.5 4.2 5.2.5 6 3 .4 1.3-.1 3.7-1 4.6-1.7 1.5-4 3.2-6 3-6-.6-11.4.3-17 2.2-4 1.4-8.3 2.4-12.5 3.5-.2.1-.6-.8-1-1.2l-2.7-2.3c-.2-.7-.1-2-.1-2-3.8-.3-5.8 1.7-5 5.2 1 5.2-3 3.4-5 4-.7.2-2.4-2-3-3.4-1-3-2-6.2-5.8-6.8-.5-.1-1-.6-1.3-1 .4-.3.8-1 1.3-1a153 153 0 0 1 8.1-1c2-.2 2-.1 2.8 2.3v.3l1.3.3c1.8-5 8.3 2.7 9.5-3.6.3-1.5 2.7-4-1.6-3.4-.4 0-1.4-1.5-1.3-2.2.1-.6 1.2-1.5 2-1.6 2-.2 4.5.4 6.4-.2 1.7-.5 3-2.2 4.4-3.4-.6-.5-1.4-1.4-2-1.3l-17.3 4c-.7.2-1.2 1-1.7 1.5l2.3.4c3.6.2 3.5.2 2.6 1.8-.2.4-.4 1.2-.5 1.2l-10.5-.5V765l2-5-5-1.6c.4-.2.8-.6 1.2-.5 9.7 1.6 19-2.2 28.3-3.2 9-1 18-2.6 26.8-5 11.5-3.2 23-6 35-7a69 69 0 0 1 35 5.2 25 25 0 0 1 5.3 3.7l-12-3.5c-3-1-6.4-1.5-9.6-2a21 21 0 0 0-5.6 0c-1 .1-2 .6-2.8 1 .7.7 1.4 1.7 2.2 2l24 6.8c1.4.3 5 2.6 5.7-1.8m-42.5 14l9.8-1c1-.1 1.8-.8 2.7-1.2-1-1-2-2.2-3-3-.7-.4-2 0-2.8.3-7.3 2-9.4.4-8.2-6.6.1-.8.1-1.7 0-2.5-.1-.4-.8-1-.8-1-2.4 2-5 3.8-7 6-.6.7.4 3 .7 4.4 2 7.8 2 7.8 8.5 4m13-6l11.4 5c.5.2 1.6.1 1.8-.2.3-.6.6-1.8.2-2.2-.8-1-2-1.6-3-2.5-3-2.8-9.2-1.8-8.8-8.2 0-.5-1-1.2-1.7-1.8-.2 1-.6 1.8-.5 2.7.4 3 1 6-3.7 3.3-.5-.3-1.3-.2-2 0-1.5.4-3 1-4.4 1.4 1.8.8 3.5 2 5.3 2.5 1.3.4 2.7.1 5 .1m36 13l2 1 3.4 1.5c-.7-1.4-1-3-2.2-4a29 29 0 0 0-5.8-4.8c-1-.6-3-.6-4-.1-1 .6-1.4 2.3-2 3.5 1 .6 2.2 1.4 3.5 2 1.3.5 2.7.7 5 1m-18.5-12.5c-.7-.7-1.3-1.6-2-2-.8-.4-1.8-.2-2.7-.3l1 2.4c1.6 4.5 5.7 5.5 9.6 6.5.8.2 2-.8 2.8-1.3-.5-.6-.8-1.5-1.4-2l-7.2-3.5m-91 8c-1.5-.8-3-2-4.5-2.3-1-.2-3 .5-3.2 1.2-.4 1 .3 2.6.5 4 .7-.6 1.4-1.5 2.2-1.7s2 0 2.6.6c1.2 1.2 2 3 3.3 4 .7.4 2.4-.8 3.6-1.3-.4-.7-.6-1.6-1.2-2-1-.7-2.2-1-3.4-2.4m63.5-22.5c.2-.4.6-1 .5-1.2a13 13 0 0 0-11.8 1.6c-.3.6-.2 1.6.1 2.3.1.3 1.6.5 1.7.3 2.2-4 6.3-.8 9.5-3m-88 31l1.5 2.8c.3.5.6 1 1 1.2.6.1 1.2-.2 1.8-.3l-1.2-5.4c-1.2.4-2.5 1-3.2 1.8m70-28c-.2 1-.5 2.2-.4 3.3 0 .6.6 1.2 1 1.7.5-.4 1.4-.6 1.5-1 .4-1.7 1.7-4-2-4m58.5 14.5l2-.6-2-4c-.1-.2-1.2.1-1.8.2l1.8 4.2m-36.5-16.5c.6 1.2 1 2.5 1.7 3.6.1.2 1.2-.2 1.8-.4-.8-1-1.7-2.2-3.5-3.2m-64 18l-2.2 2.8 2 1.2a10 10 0 0 0 .3-4m-4.5-2.5l1 2.5 2-2c-.8-.4-1.7-.8-3-.6m78-11l1.7 2.5c.1.1 1-.5 1.3-.8-.8-.7-1.7-1.5-3-1.7m-86.5 21.5l1 3 1.5-.7c-.5-.8-1-1.5-2.5-2.3m58.5-21.5l1.7 2.5c.1.1 1-.5 1.3-.8-.8-.7-1.7-1.5-3-1.7m-25 4h3l-1-2c-.7.3-1.4.6-2 2m76 1l3.6.4c-.1-.3-.1-1-.3-1-1-.2-2.2-.3-3.3.6zM224 75c-14-.7-27.6 1.5-41.3 4l-46 7.2c-12.3 2.2-24.3 5.5-36.5 8.2-1 .2-2-.7-3-.7-1-.1-2 .1-2.8.4l-21 7-34 7.6c-7.6 2-15 5-22.5 7.2-2.4.7-5.3.1-8 .4-2 .2-3.7.7-5.5 1.2-.8.2-1.4 1-2 1.5.3-1 .4-3 1-3.3 3.3-1.4 6.7-2.3 10-3.4l12.3-4c.4-.1 1-.3 1.3-.5-.4-.2-1-.5-1.3-.5-3.2.3-6.4.5-9.6 1-4.6.8-9.2 2-13.8 3-.4.1-1.4-1-1.3-1.3.8-1.6 1.5-4 2.8-4.5 5-1.4 10-2.4 15.2-3l23.2-3.2c3.5-.7 3 .8 2.6 2.8l-.4 2.4c.8-.1 1.7-.1 2.3-.4 2.3-1.2 4.8-2.3 6.8-4 1.6-1.3 2.6-2.5 4.4-.3.2.3 3-.7 3.2-1.3.3-3.4 2.7-2.8 5-3l143.3-28.3c12.3-.4 25-1 36.3-7.6.8-.5 3.5-2.4 4.4 1 .1.5 1.6 1 2.3 1l68.4-15.8c1.6-.3 3.6 1 5.3 1.5.3.1.5.7.8 1L248 66c-.6.1-1.2.2-2 .4.5.2 1 .6 1.4.6l40.4.6c10 .3 20 2.3 29.8 1 10.4-1.3 20.2 3 30.4 1.4.6-.1 1.2.3 1.8.4-.6.2-1 .5-1.7.5l-23.6 1c-8.8-.4-17.3-2.2-26 1.4-2.8 1-6.8 1.3-10 2.7-.6.2-1 .8-1.5 1.3.7.2 1.4.7 2 .7l24.2-2a556 556 0 0 1 21.1-1c1 0 2.3.8 3.5 1.2-1 .2-2.2.7-3.2.7l-47 2c-2.2.1-4.2 1.7-6.4 2.3-1 .3-2.2-.3-3.4-.4L247 79c-1.6-.1-3-1.3-4.6-2-.7-.3-1.5-1-2-.7-6 2-6 2-12.7 0-1.2-.4-2.5-.5-3.5-1 2-.6 4-1.2 5.8-1.2 5.2.2 10.3.7 15.5 1 .8 0 1.6-1 2.4-1.4-.6-.4-1.3-1-2-1-6.7-1.7-13.3-4.7-20.5-2.5L221 72l3 3m33 .5c2.8.5 5.6 1.5 8.3 1.4l14-2c3.3-.6 6.6-1.8 9.8-2.7.6-.2 1-.5 1.7-.7-.6-.2-1.2-.5-1.8-.5l-26.5-1c-2.5-.1-5.6-1.6-6.8 2.3 0 .1-1.3-.1-2-.2l-4-.6c.5 1 .7 3 1.4 3.3 1.5.5 3.4.2 5.6.8M30.4 102c.4 1.3.8 3.8 1 3.8l9.3-1.4c.6-.2 1-2.2 1-3.4 0-.4-1.8-1-2.6-1-2.6.5-5.2 1.3-8.8 2M247 71.5l2-2.6c-1-.3-2.3-1-3.4-1-.8 0-1.6.8-2.4 1.2l3.8 2.2m-29.5.5l1.5-1.2-2-.8c-.2.7-.3 1.3.5 2M193 74.5l2.6 1.4.4-1.3c-.8-.2-1.7-.4-3-.1zM357 942c-5.4-4.8-5.5-11.3-4.8-17.6l4-26.4c3.7 14.8 4 27.7 3.7 40.8 0 .7.4 1.5.6 2.2l2-1.2c6.8-6 10.8-13.3 11.3-22.3.3-5.5-.8-11.3.3-16.6 1.2-5.8-1.3-10-2.7-15-3.7-13.3-8-26.7-6.5-40.8.6-5 2.5-9.6 4-14.3.2-.6.8-1.4 1.2-1.4 5.4.3 3.6-3.6 3.7-6.3.2-4.2 1-7.6 3.2-11.7 2.4-4.5 1-11.7-.4-17.3-3.7-16-11-30.6-23.3-41.7-5-4.5-11.2-7.4-16.8-11-.5-.3-1-.5-1.7-.7.6-.2 1.2-.5 1.8-.5 8 .1 16 .4 23.8-3l1.7-.7c1.7-.8 3-.2 5.7-.4 2.5-.2 5.3-1.3 7.2-3 6.7-5.5 13-11.6 15.7-20.3.2-.8.1-2.2-.4-2.5-1-.6-1.2-.4.1-2.2l3.6-5.5c.5-.6 1.7-3 2 .2 1.7-.8 3.6-1.5 5-2.6.5-.4.5-2.8.3-2.8-3.5-1-1-2.4 0-3.2l17-16c.2-.2 1.4.3 1.5.7a61 61 0 0 1-.4 34.1c-1 4-2 7.8-3.7 11.5-.7 1.5-3 2.2-4.3 3.6-3.3 4-6.4 8.3-9.6 12.5-.5.6-.4 1.6-.6 2.4l3.5-1.5c-.2.6-.2 1.3-.5 1.7a77 77 0 0 1-31 22c-2.5 1-3.5 1-2 4.3a116 116 0 0 1 10.7 38.1 103 103 0 0 1-7.2 48.8c-.2.6-.3 1.2-.5 1.8-.2-.6-.4-1.2-.7-1.7l-6.3-7.3.4 10.4c.3 4.2 2.7 6.4 6.5 7.7 1 .4 2 2.4 2.5 3.8.6 2.6 1 5.4 1 8l.8 34c-.5 10.5-2.4 21-3.8 31.3-.4 3-5.8 5-10.3 3.5-2.8-1-5-3.5-7.4-5.6l1.5-6c-.6 0-1.6.1-1.6.2v5.6m3-198.5l-5.7 1.7c.1.3.2 1 .4 1 1.3.3 2.7.6 4 .5 1-.1 1.8-1 2.7-1.6-.5-.7-1-1.3-1.5-2.5l7.7-1.6c1-.3 1.5-1.6 2.3-2.5-1-.5-2-1.5-2.8-1.3-2.7.5-5.5 1-8 2.2-2.4 1.2-1.4 2.8.7 4.2m20-6c.7-1 1.6-2 2-3s.4-2.2.5-3.3c-1 .3-2 .5-3 1-.7.4-1.2 1-1.8 1.7l-5.7 6c2.6-.5 5.3-1 8-1l-20 9.5c-1.2.6-2.8 1.7-3 2.8-.2 1 1.2 2.4 2 3.4.2.2 1.2-.1 1.7-.5s.7-1 1-1.7l.3 2c2 10.4 4.6 11.6 11.7 7.7a76 76 0 0 0 28.3-25.4c2-3.2 5-6 5.7-9.6 1.4-6 1.3-12.4 2.3-18.6.6-3.5 2.2-6.7 3.3-10 .2-.6.3-2 .1-2-3.5-1.6-5.4-.1-7.3 3l-17.8 29c-2.2 3.4-5.3 6.3-8 9m32-17c4.3-2.6 8-13.4 5.7-17.3-.3-.5-1.3-1-1.3-1-1.5 1.7-3.8 3.3-4.2 5.2-.6 4-.2 8-.2 13m-36 111c-3.2 4-4 9-1.7 12.2.3.3 1.5.5 1.7.3a17 17 0 0 0 .1-12.5M411.4 689l1 5c1.2-1.6 2.5-3 3.5-5 .5-1 .4-2 .6-3.2.2-.7.5-1.3.8-2-1 .1-2.6-.1-3.2.5-1 1-1.5 2.6-2.7 4.5m6.5 4.5l1.3 2.5 1.7-3c-.8 0-1.7.1-3 .6M369.4 941l-1.5 2.3 1.5.7c.3-1 .7-2 0-3m5-60l1.5-2-1.3-1c-.2.8-.4 1.7-.2 3z"/><path d="M1035 275.8l-7.3 4.3c-2 1.3-2.4 1.5-2.8-1.3a280 280 0 0 0-4-20.3c-.3-1.3-1-2.5-1.8-3.8l-2.8-5.6-1.3 6.4a82 82 0 0 0 6.8 36.6c1 2.6 1.4 6 1 8.7-.5 3-3.2 3-5.2 1.2-2.5-2.3-4.3-5.4-7-7.6-1.5-1.3-4-2.5-6-2.2-1.2.2-2.8 3.2-2.7 4.8.3 4.4-2 4.3-5 3.7-1-.2-2 .2-2.8.2-.3 0-1-.8-.8-1 1.3-4.7-1-8-4.2-11-.5-.4-.8-1.8-.7-1.8 3.8-2 4-2.5 4.2-6.8l.5-7.3c0-.6.2-1 .3-1.7-.7.2-1.6.1-2 .5-1.7 2-1.7 1-1.8-1-.2-3.5-.4-7-1-10.6-.3-1.3-2-3.3-3-3.2-1.8.2-4.6 1.2-5 2.6-3 7.2-7 14.3-5 22.7.3 1.3-.7 3.5-1.8 4.3-1 .7-3.6.8-4.4 0-1.2-1.2-2.3-3.6-1.8-5l9-22.3c1.6-5 1.4-10.5 2.3-15.7l4.3-20.7c.2-.7.7-2 1-2 6.4.4 3-5 4.4-7.5 1.2-2.4.7-5.7 1.2-8.5 1-4.5 6.4-5.3 10.5-1 5 5.2 8.7 11.3 8.5 19 0 1 .3 2 .4 2.8l1.5-2.3c.5-1 1-2.3 1.3-3.5.6 1 1.3 2.2 1.7 3.3l11.3 36.3c1 3 1 6.3 1.8 9.3.7 2.3-1 7.8 5 5 .6-.3 2 1 2.8 1.6M998.4 225l-5.4 1.4 2.2 5.4 1-2.7c.1-.2 1-.1 1.4-.1 2.4 0 4.7 0 7 .5-2.8 4-6.6 8-8 12.4-2 6-2 12.6-2.4 19-.1 1.3 2.2 2.7 3.4 4.6v4c0 .5.5 1 .7 1.5.5-.3 1.4-.5 1.6-1a80 80 0 0 0 1.6-7.3c0-.2-1-.8-1.4-.8-.5 0-1.2.3-1.5.7-.5.6-.7 1.5-1 1.7v-5c0-.5.2-1 .3-1.4l.7.4 2.8 1.2-1-3.4c-.1-.8-4-1-.3-2.6 5-2 4-2.4 3.8-7.3-.1-2.3.4-2.6-1.8-2.5-.8.1-1.6.4-2.5.7.3-1 .4-2 .8-3 .7-1.4 1.8-2.6 2.6-4 .3-.5.5-1 .7-1.7l.6 2c.3 1 .5 2 1 2.8.1.2 1.7-.2 1.7-.3l-.2-5.5c-5-.1-1-1.8-.5-2.7-2.7 0 3.2-5-2-4l-.1-4c-1 .5-2.4.7-2.8 1.4-2.6 5-2-1-2.6-.8.8-.5 1.8-.8 2.4-1.4 1-1 3.8-2 1-4-1.4-1-3.2-1.4-4.8-2l-.5 5.7c0 .6 1 1.3.8 2m7.5 34.5c4.4 2 5.6-.6 6-4 .2-2.8.1-5.6 0-8.5 0-.6-.3-1.2-.4-1.8-.5.4-1.3.8-1.4 1.3-.5 2.5-.8 5-1.3 7.5-.2 1-.8 2-1.2 3l-1.7-1.8c-.4-.4-1-.6-1.3-1-.2.5-.7 1.2-.6 1.6.3 1.2 1 2.3 2 4m-21-9c-.1 1-.5 2.3-.2 3.3.2.6 1.6.8 2.5 1.2.2-1.7.8-3.3.7-5-.2-2.3-1-4.6-1.6-7l-1.3 7.3m29 32c-1-1.6-2.5-1.8-3 .3-.4 2-.3 4 0 6 .1.8 1.3 1.5 2 2.3.3-.8.8-1.6 1-2.4.1-1.7 0-3.4 0-6m-15-9l-2-.5v6c0 .7.4 1.4.7 2 .8-.7 1.8-1.3 2.5-2 .2-.2-.1-1-.3-1.5-.4-1.2-1-2.3-1-4m12-6l-2.3-2.5v3.2c.1 1-.1 2.3.4 3.3.3.7 1.4 1 2.2 1.5V271c0-.8-.2-1.5-.3-3.3m-11 25h1l.7-6.3-2-.1.3 6.5m4-5l2.7 2.3c.1-1.3.5-2.6.2-3.7-.2-.8-1.4-1.3-2.2-2l-.7 3.5m-10-53l-3.8.8 2 2.5a9 9 0 0 0 1.8-3.2m11.5 41.5l-2.5 3.2 2 .8c.4-1.2.7-2.3.6-4m4-36v3h1c0-1 0-2-1-3zm323.3 6.5l21-13c3.5 4 6.3.6 9-1l20.5-12.2c.5-.3 1.2-1 1.2-1.5.1-3 .1-3 3.7-4.5.6-.2 1-1 1.4-1.4-.7 0-1.4-.2-2-.1-13.8 3.5-28 3.8-42 3.5-.6 0-1.2-.2-1.8-.4.7-.2 1.3-.6 2-.6h7.5c.5 0 1-.6 1.4-1-.4-.4-.8-1-1.2-1-4.5-.4-10.6-2.7-13.3-.6-6 4.7-10.6-1-15.6-.3l-19 3.6c-2.2.5-4.3 1.6-6.5 2.4-.4.1-1-.5-1.4-.5-1.3-.1-3.8-.3-4 .1-1 4.3-3.3 2.3-5.8 1.5-1.4-.4-3.3.5-5 1-.5.2-1 1-1.3 1.4l1.8.4 2 .6c-.6.1-1.2.2-1.8.4l-31 8.3a138 138 0 0 0-26.1 8.7c-1.7.7-3 2.4-4.7 3.2-7 3-13 8-22 5.2-4-1.3-9.7 1.5-14.4 3.2-6.5 2.4-12.2 7.4-20 6.3-1-.2-2.2-.4-3.2-.7-.1 0 0-1.2.2-1.3l33.8-10c1-.3 2.6-.5 3.4 0 7.3 5 12.5-.6 17.8-4 3.4-2.2 6-5.6 8.8-8.7 3.8-4 8.3-6 13.8-6.5l19.7-2c.3 0 1 .1 1 0 3.6-7.4 11.3-5 17-6.7 10.8-3.2 22-5 33-7.2.3-.1 1 .1 1 0 1.8-6.8 7-2.5 10.3-2.8l47.7-3c15-.8 30-1.7 45.2-1.8 4 0 8 2.4 11.8 3.8.6.2 1 1 1.4 1.4-.7.2-1.4.6-2 .6-8-.4-14.8 2.5-21.5 6-2.3 1.3-4 3.7-6.3 5.2-2.5 1.8-5 4-8 4.5a47 47 0 0 0-23.2 12.8c-1.5 1.4-2.4 3.2-5.2 1.6-1.2-.7-3.7.3-5.4 1l-16 7.5-3-1.6-.4 1.3 3 .6c-3.3 2.2-3.3 2.2-7.7-2m42.3-39l-17.6 2c-.6.1-1.2.3-1.8.4.4.5.8 1 1.3 1.4.8.5 1.6 1 2.5 1.2 9.8 2.7 19.4.2 29-1.3 5.5-1 10.2-5.2 16.3-3.7a40 40 0 0 0 7.6 1c.7 0 1.5-1 2.3-1.4-.6-.8-1.2-2.4-2-2.4-5.6-.1-11.6-1-16.8.4a65 65 0 0 1-20.9 2.5m24 8l5.5-3h-7.2c-.5 0-1.3.7-1.4 1.2-.2.8 0 1.8.1 2.7.7-.3 1.4-.6 3-1m-50.5 26.5l-1.3-2.5-2.7 3.2c1.2-.1 2.3-.1 4-.7m-109-11c-.8-.5-1.6-1.3-2.4-1.3-1 0-1.7 1-2.5 1.4.8.5 1.5 1.2 2.4 1.3.6.1 1.3-.6 2.5-1.4zM207 463v2.5h-1c-11.2-3-22.3-1.3-33.4.6-.6.1-1 .5-1.7.6-1.5.4-.3-5.3-3.5-1.6-1.3 1.5-3.2 2.7-4.8 4-.6.5-1.4.7-2.3.8 0-.5.4-1 .4-1a10 10 0 0 0-10-1c-.3.5-.4 1.5-.1 2 .4.5 1.3 1 2 1l7.5-1c-4 .7-8.2 2-12.2 1.8-6-.4-11 1-15.5 5-1.3-.7-2.3-1.3-3.4-1.7-.1 0-.4.4-.7.7l2.8 1.3c.3.1.6 0 1 0l-31 9c-.6.2-1.3-.4-2-.7.3-.4.6-1 1-1.2 1-.4 2-.6 3-1-.4-.4-.7-1-1-1-1.5-.1-4.2-.3-4.4.2-1.7 4.8-6 4.4-9.6 5.7-2 .7-4.4 1-6.6 1-1 0-2.2-1-3.2-1.5.8-.8 1.6-2.3 2.4-2.3 5.7-.4 10-4.3 15-6l31-8.2c.5-.1 1.3.2 1.5 0 4.7-6.3 12.4-4.7 18.5-7.2l22.3-10.2c6.3-3 12.7-4.8 19.6-2.5.4.1 1 1 1 1 4.6-1.8 4.7-2 9-1l38 10.8a78 78 0 0 1 24.4 12.3c2.3 1.6 5.5 2 8.3 2.8 1.4.4 3-.2 4.4.2 1 .3 1.6 1.5 2.5 2.4l-2.8.5c-2.4.6-6-2-6.6 3-2.2-.3-4.5-.2-6.5-1-3-1.3-5.7-3.2-8.5-4.8-2.5 4.2-6 1.4-8.6.8l-23-6c-.8-.2-1.3-1.2-2-2 .4-.4.8-.8 1.3-1 .8-.4 1.6-.6 2.4-1l-3.5-2c-5.3 6.4-6.8 0-9.3-2.7-.3-.3-1-.3-1.6-.6a23 23 0 0 1-1-3.7c-.7.4-1.7.7-2 1.3-.3 1-.2 2.2-.2 3.3l3-.6m-38.5-7c-2.2 1.2-4.3 2.3-6.4 3.5-.3.2-.4 1.4-.2 1.4 2.2 1 7.2-2 6.7-5m58.5 10.5L226 462l-2.6 2.6c1.2.8 2.3 1.5 4 1.8M190 457l-1.3 2.7 3.8.2c.4 0 .7-1 1-1.7-.8-.4-1.7-.8-3.5-1.2m-8.5.5c-1.8-.2-3.5-.4-5.3-.4-.2 0-.5 1-.7 1.4 1.2.2 2.5.4 3.7.4.7 0 1.5-.3 2.3-1.5M241 465h-3c.2.5.4 1.3.7 1.3a42 42 0 0 0 5-.1c-.5-.5-1-1-2.4-1.4m.5 8.5l1.8 2.2 1.2-2c-.8-.3-1.7-.5-3-.3m-128 4l-2.6-.4c0 .2-.1.6 0 .7 1 .3 1.8.5 2.7-.3zM1021 845.3c3.7 2 5.6-3 9.3-2.4 3.4.5 7-.3 10.4-1 4.4-1 8.7-2.6 13.2-.4.7.3 2 0 2.8-.3l67-21.2c5.7-1.5 11.2-4.7 17.5-2.8l1.6.6-19.2 5.2a35 35 0 0 1-4.7.7l1.2 2.4 3.3-2c.2-.1.2-.5.4-.8 3 1 8.3-.3 6 6 0 .1 1.2 1 1.7 1 1.4-.4 4-1 4-1.6-.2-3.4 2.2-2.5 3.7-2.2l21 5c2.2.7 3.8 3.2 5.7 4.7 1 .7 2 1 3 1.7.5.4.7 1.3 1 2l-2-.6a82 82 0 0 0-37.5-6.9c-4 .1-7.8 1.6-11.7 1.8-2.5.1-5 3-8-.6-2-2.4-6 .7-8.4 4.4-1 1.6-4.5 1.7-6.8 2.4.2-.3.4-.7.6-1l2-3c-1.4 0-3-.3-4.2.1-7.7 2.2-15.4 4.7-23 7-.8.2-2-.8-3-1.2l14-4.8c.6-.2 1-1 1.6-1.6-.6-.1-1.3-.4-1.8-.3l-13 2.5c-2.3.7-6.4 1.3-2.5 6 2.8 3.3.7 6.2-4.3 6.5-5.4.3-10.8-.1-16 .1-3 .1-6 .8-9 1.2s-5.4.1-5.3-4c0-.1-1-.5-1.4-.4-3.5 1.6-6.7 1.4-9.5-1.8m17.5-1.2l-1.3 2.7c.6.3 1.2.8 1.7.7 2.8-.7 5.6-1.5 8.4-2.4.6-.2 1-.8 1.6-1.2-.6-.4-1.2-1.2-1.7-1l-8.8 1.2m79-18c-2-.3-3.8-1-5.7-1-1 0-2 1.2-2.8 2 .7.3 1.5 1 2.2 1 2.2-.2 4.2 4.6 6.5.3l2 1.5c-.4-1.2-1-2.5-2.3-3.7m-54 15l-3.4.4 1.7 2.6c.7-.8 1.5-1.7 1.7-3m-29.5 5.5l.7 2.5c.4-.7 1.3-1.5 1-2-.2-.7-1.2-1-2-.6m71-17l1.2 1.5.8-2c-.7-.2-1.3-.3-2 .5z"/><path d="M427 353.8l-7.6 13.2c-.1-.8-.6-1.6-.4-2.3l12.2-39.4c3-5.6 2-11.7 4.6-17.3 2.8-6 4.6-12.7 6.8-19.2 2.2-6.4 4-13 6.4-19.3l14.7-37.5c-3 27.7-9.2 54.8-19 81-5 13.8-11.8 27-17.8 40.8m19-68.2l-1 6c0 .3.6.7 1 1l3-6.6c-.8-.3-1.7-.6-3-.4m-3 12l1.2 1.5.8-2c-.7-.2-1.3-.3-2 .5zm888.8-50.6c2.3 4.5-.6 6-4 7.8l-19.4 11.2c-9.5 5-19 10.5-29 14.7-11.6 5-23.7 8.6-35.6 12.8-.5.2-1 .2-1.7.2.3-.5.5-1 1-1.4 1.8-2 .8-2.4-1.3-2.4-2.2 0-4.5-.1-6.7.1-.8.1-1.5 1-2.2 1.5.6.5 1.2 1.3 1.8 1.4 1.6.3 3.3.3 5 .4l-6 1.7c-3.6 1.3-7 3-10.6 4.2l-15.3 5.2c-1 .3-2.5-.5-3.7-.8 1-.6 2-1.3 3-1.6l20-6c1-.3 1.8-1.7 2-2.7 3-7.8 6.5-9.7 14.7-7.8.7.2 1.4.1 2 .1-.1-.5-.1-1-.4-1.3-3.3-2.8.7-2.8 1.5-3 2.4-1 5-1.5 7.6-2 .1 0 .4.8.6 1l1 1.7c3.8-2.2 8 2 12-1.6 3-2.5 8.2-2.5 10.5-5.3 4.4-5.3 10.6-5.4 16-7.4 9.3-3.5 16.4-10.7 25.4-14.5 2-.8 3.5-4.6 6.3-1.2.8-.7 2.3-1.7 2.2-2-1.5-3.2 1.5-2.3 3-3m-40.7 25.5l-3 .1v1c1 0 2 0 3-1m-38 12l-1.2-1.5-.8 2c.7.2 1.3.3 2-.5zm101 45.4c.8.7 1.4 1.8 2 2 2 .3 4 0 6 .1.8.1 1.5.6 2.3 1-.6.3-1.2.7-1.8 1l-6.7 3c-2.2 1-4 3.8-7 1-.4-.4-1.5.1-2.3.2l1 1.8c.1.2-.2 1-.3 1-4.3.3-8.5 4.3-13 .6-.3-.2-1.5.5-2 1-6.3 6.6-14.2 8.8-23 9.6-3.3.3-6.5 2.7-9.7 4-1.6.7-3.2 1.2-5 1.8 2.3-1.8 2.2-1.8.3-4-.1-.1.3-1 .5-1 1.2-.1 2.4.1 3.5-.1.5-.1 1.3-.8 1.4-1.3 0-.5-.8-1.6-1-1.6-3.2.8-6.7-1.7-9.8 1.8-1 1-5.3-1-8-1.7-.1 0 .1-1.8.2-1.8 3-.3 3-1.4.8-3-2.7-2-5.4-2.3-8 .3-.2.3 0 1 0 1.5l-9.5 1.7c-2.7 2.7-7.8-3.2-9.7 2.6-.1.2-1.2-.1-1.8 0l-6 1 2.3 2.5c.2.2.2 1 .2 1-1.5.4-3 1-4.5 1-.5 0-1-2-1.4-3-.2-.4-.7-1-1-.8L1223 359c-1-.1-1.8-.3-2.6-.8-1-.7-1.6-1.6-2.4-2.4 1-.5 2.2-1.5 3.3-1.5 11.6-.4 22.5-3.7 33.5-7 2.4-.7 5.4-4.5 8.3-.3.2.3 2.8-1 4-1.7 6.2-4 12-4.5 19-1 5 2.7 11.2 3.4 17 4.6 2.2.5 4-.5 6-2 3.3-2.5 7.8-3.3 12-4.8l11.8-4c4-1.8 7.8-3 12.2-3.2 3-.2 5.6-3 8.7-4.7m-16.7 10.5c.7.3 1.7 1 2 1l2.8-3c-1-.1-2-.4-3-.2-.7.2-1.3 1-2 2.4m-16.5 4.5l-1.5 2 1.3 1c.2-.8.4-1.7.2-3zm-258.7-34c-1.4-7-2.3-14-4-20.7-1-4.3-4.8-7.7-4-13 .5-3.5.3-5.6 4.7-3 1.3.7 4.2-1.2 6.3-2 .7-.3 1.4-.8 2-1 .3.7 1 1.4 1 2-1.2 10.3 8.4 12.6 13.5 18 .3.4 3-.7 4-1.7 1.8-2 3-4.7 4.7-7 .5-.7 1.2-1.3 2-2l1 2.2c1.6 4.5-1 9-6 10.8-1.4.5-2.7 1.5-4 2.3 1 .7 2.3 1.2 2.8 2.2.6 1 1 3 .3 3.6a4 4 0 0 1-3.6.8c-1.5-.8-2.7-2.5-4-3.8l-2-2-.5 2.7-1 8c-.2.8-1 1.5-1.6 2.2-.8-.7-2-1.2-2.2-2-.6-2.3-.6-4.7-1.2-7-.3-1-1.3-2-2-3-1 .8-2.7 1.4-3 2.4-.7 3-.7 6.4-1.2 9.5-.1.6-1.3 1-2.2 1.3zM897 108l14.2 3c2.5.4 5 .3 5-3.5 0-1.2 1-4 3.8-1.2 1.6 1.8 3.2 1.2 3-1.7 0-.5.7-1 1-1.6 0 .7.3 1.5.1 2.2-1 2.8-2.2 5.6-3.4 8.4-.1.3-.8.4-1.3.4-5 0-10 .4-15-.1l-43.8-7.4c-3-.5-6.2-.4-9.3-.4-1.5 0-3 .4-4.4.6l1-5.4a74 74 0 0 1 8.7 2.2 12 12 0 0 1 2.8 1.3c.1-1.5.4-3 .2-4.4-.2-1-1-2-2-2.3-1.2-.4-2.6-.1-4-.1.4-2.2-.1-3.2-2.8-3h-20.5c-1 0-2 .2-3 0-1.6-.4-3-1-4.7-1.5l4.3-.4c6.2-.4 12.4-1.2 18.5-.8a43 43 0 0 1 15.3 4c5.6 2.4 12.7 1.4 19.2 2 .2 0 .7-1 .6-1-.8-.7-1.6-1.3-2.5-2l-2.2-1.8c1 .1 2 0 2.7.3 9.5 4 19.5 5 29.7 5.6 3.2.2 6.4 1.2 9.7 2 .6.1 1 .4 1.7.5l-1.8.4c-3.2.6-7-1.5-10 1.8-.8-1-1.4-2.6-2-2.6l-21-2c-1.3-.1-2.6 1-4 1.6 1.6 1 3.2 2.6 5 2.6 5.6.2 11.3-2.4 17 1 1.2.7 3.3-.2 5-.3 0 .2-.1.4 0 .5l4.8 3.2c-2.3-.2-4.6-.3-7-.7-2.7-.5-5.4-1.5-8-2-2.8-.4-2.3 1-1 2.7l-10.4-2-13.2-4c-.6-.2-1.3.5-2 .7l1.5 1.3c6.3 6.4 15.2 4 22.6 6.8.2.1 1.2-2 1.8-3m-29.5-8c-.7-.3-1.3-.8-2-1-1-.2-1.8-.2-2.7-.3.1 1-.1 2.5.2 2.6 1.8.7 3.7 1 5.6 1.5-.2-.8-.4-1.6-1-3m50 12l1.5-2-1.3-1c-.2.8-.4 1.7-.2 3zM986.7 67c-3.5 1.2-7.3 2.7-10.6-1.2-.2-.2-2.3.6-2.6 1.3-1.4 3-3.2 2.5-4.5.4-2.6-4.3-5.8-2.4-9-1.4l-1 .3c.3.2.6.5 1 .7 3.6 1.7 8 5.5 10.8 4.6 6-2 8 3.2 12 4.3a158 158 0 0 0 19.8 4.1l33.3 4c.8.1 1.7 0 2.5 0l5.5.6-17.3.5c-1 0-2.2.2-2.5.7-1.6 3.8-2 4-6.7 2-.8-.3-1.5-1-2.3-1.4.8-.1 1.8 0 2.3-.5.7-.7 1-1.7 1.5-2.6-1.7.1-4.4-.3-5 .5-2.4 4.2-6.2 3.2-9.7 3a3 3 0 0 1-2.1-2c.4-3.6-1.7-2.6-4-2.8-4.7-.5-10.2 2.2-13.8-3.8-.8-1.4-4.7-1-7.3-1.3-1.8-.2-3.7.1-5.5-.1-.6 0-1.5-.6-1.6-1-.8-4-1.6-4.3-6-3.6-2.7.4-5.6-.7-8.4-1.2-.3-.1-.4-1-.5-1.6.5.2 1 .5 1.4.6.8 0 1.6-.2 2.4-.3-.4-.8-.6-2-1.2-2.3L947 64.3c-3.8-.5-7.6-.1-11.5-.1-.5 0-1 .2-1.4.3l1.3.7 3 1c1 .4 3.6.4.7 2.2l3.7 1.8c1.6.4 3.2.5 5 .7-2 .4-4 1.4-6 1.2-1.8-.2-4-1.4-5.2-2.8-3-3.2-5.6-3-7.8.7-.6 1-2.4 2-3.6 2-1.6.1-3.3-.7-5-1l4.2-2.8-2-1.8 3-.2c.8-.1 1.7 0 2.4-.2 1-.3 2.2-1 3.3-1.4l-3.3-.4-26-1c-.5 0-1-.2-1.4-.3.5-.2 1-.6 1.4-.6H948c6.4.1 12.7.6 19 1l17.6 1c.4 0 .8.3 1.2.5-.3.2-.6.3-.8.5l-2 1.6 3.6.4m-9.7 6.5l-3.7-.3.4 2c1-.2 2.2-.5 3.3-1.7zm-820.2 769c-.7-.2-1.6-.6-1.7-1-.2-1.4-.1-2.8-.1-4l-4 .5c-.7.1-1.3.4-2 .6l3-7.2c.3-.7 1-2 .8-2-3.7-2.5-1.4-6.2-1.8-9.4s1.2-6.7-2-9.4c-.5-.5 0-2-.2-3-.3-1.3-1-2.4-1.6-3.6-1 .5-2.8.8-3.2 1.6-2.5 6-5.5 11.5-6.2 18-.3 2.5-2.5 4.8-2.7 7.3-.5 4.3-.1 8.8-.2 13 0 1-.3 2-.4 2.8l-1.5-2.3c-3.8-5.7-1.4-12-.3-17.5 1.5-7.8 4.8-15.3 7.6-22.8 1-2.8 2.8-5 6.5-4.5 4.4.5 5.4 4 6 7a481 481 0 0 1 6 29c.4 2-1.2 4.4-2 7zM31 471c7.2 1 14 2.2 20.7 3 4 .4 8 0 12 .1 1 0 2.2.7 3.4 1-1 1-2.2 2.6-3.5 2.8a60 60 0 0 1-10.5 1.1H28c-1.7 0-3.3 1-5 1.2-.6.1-1.5-.3-2-.8l-8.7-8.7c-.4-.4-.6-1.5-.3-1.8a4 4 0 0 1 2.3-1 30 30 0 0 1 16.7 3m-9.5 1l-3.4-.6c.1.6.3 1.6.4 1.6 1.2-.1 2.3-.3 3-1z"/><path d="M925.2 296.8l-12.4-27.2c-2.2-4.2-3.6.7-5.4 1.5-.7.3-1.4.5-2 .8.2-.6.2-1.6.7-2 5.7-4 4.6-10.8 7-16 .4-1 1-2 1.5-2.8l.5 2.8c.5 5.3-1.7 11.2 3.7 15.4 2 13.3 10.7 24.6 11.5 38.4.2 3.4 1 8.5 7 7.4.2 0 .5 1 .8 1.4-.5-.1-1-.5-1.4-.3-1.2.4-2.3 1-3.4 1.5l3.4 2.2c.4.3 1.3.3 1.4.6.2 1-.2 2 .1 3 .3.8 1.3 1.4 2 2 .3-.6.7-1 1-1.7.6-1.6 1-3.2 1.5-4.8.2 2 .7 4 .4 5.8-.4 2.8-7 6.4-9.8 6-4.7-1-5.8-4-5-8.2.1-.5.3-1 .4-1.3.2.5.6 1 .6 1.5-.2 3.3 1 5.5 4.6 5.4 1.2 0 2.3-.7 3.4-1-.6-1-1-2.4-2-3-3.4-2-6-3.6-5.3-8.5.5-3.7-1.3-7.7-2.2-11.5a65 65 0 0 0-2.3-7.4m-11-31.8h-2l.5 1.4c.7-.3 1.4-.6 1.6-1.4zM997 119l-15.6-2c-4.2-.5-8.4-.5-12.5-1-2.2-.3-4-.8-5 1.7-.1.3-.8.3-1.3.4.1-.5.4-1 .3-1.4-.3-1.2-.7-2.3-1-3.4-1 .8-2.6 1.7-2.6 2.4.2 2.7-1.4 2.8-3 2.3-4.7-1.4-9.8-2.3-14-4.6-4.4-2.4-8.6-4.6-13.7-4.3-.7 0-1.4-.5-2-.8.8-.7 1.6-2 2.5-2 1.3-.1 2.7.5 4 1l16 4.4c1.3.3 3-1.4 4.3-1.3l22.7 3 22.8 4c.6.1 1.3 0 2 .3.8.3 1.4 1 2 1.4l-2.4.3H997m-43.5-4l1.5-2.2-2-.8c-.2 1-.3 2 .5 3zM752 315.8c-.7.3-1.4.1-2 .3l-4 1.4 3.7 1.6c.7.3 1.5.4 2.2.5-.8.2-2 .1-2.2.5-.6.8-6.2-2.3-2 2.3-1 .2-2.5.8-3.4.5-3-1.2-6-3-9.2-4-3-1-6-1.3-9.2-1.8-.6-.1-1.2.2-1.8.3.5.5 1 1.3 1.6 1.6 1.7.7 3.5 1 5.2 1.6-2 .2-4.3.7-6.3.4-3.3-.6-6.5-2-9.8-3-.3-.1-.5-.3-.8-.4.4-.2.8-.6 1-.5 1.4.2 2.8.6 4.2.8 1 .1 1.8-.2 2.7-.4-.5-.8-.8-2.2-1.4-2.3-3.5-1-7.2-2.3-10.6-2-5 .6-5 1-12-.1-2.4-.4-5 .6-7.6.8-.8.1-1.6-.2-2.4-.3.6-.6 1.2-1.5 2-1.6 10.6-2.5 21-2.5 31.7.2 4 1 8.5 1.3 12.8 1.7l17.4 1.8zm-340.3 66.5c.6 1 1 1.6 1.2 2.3-.6-.3-1.3-.4-1.7-1a24 24 0 0 1-4.8-27.4 69 69 0 0 1 17.1-23.3c.3-.3 1-.4 1.4-.6-.2.6-.3 1.2-.6 1.7l-12.7 24.6c-4.2 7.8-3.6 15.5.1 23.5zm62.5-331l-47 9c-9.6 2.5-19 5.6-29 4.7-.7-.1-1.4-.4-2-.6l97-19c3-.6 7 .3 7-4.8l10 2.4-4.7 1.2c-2.8 1-5.4 2.4-8.2 3-4.8 1-9.7 2-14.6 2.7l-8.3 1.3zM1192 86l-11.6-2c-2.7-.5-2.4 1.2-2.4 3 0 2 .2 2.6 2.5 1.4 1.3-.7 3.5.6 5.3 1l-.7 2c-1.4-.2-3-.7-4.3-1l-19-3.3c-3-.6-6.2-2-9.2-3-1-.3-1.6-1-2.4-1.4 1-.5 2.2-1.5 3.4-1.4 11.3.2 22.7-2 34 1.6.8.3 1.8-.1 2.7-.1l-2.5-4.5c1 .2 2 .2 2.7.7 2 1.4 3.8 3 5.5 4.6.4.4-.1 2-.7 2.8-.3.4-1.6 0-3-.1m-27.5-1l1.3-2.7c-1.3-.1-2.6-.3-3.8-.2-.4 0-.7 1-1 1.7.8.4 1.7.8 3.5 1.2zM576.7 41c.6 1 1 3 1.2 3 2.8 0 6 3.7 8.3-.6.8.6 1.8 1.2 2.4 2 .6.7.8 1.6 1.2 2.4-1 0-2 .3-2.7.1a108 108 0 0 0-44.7-6.7L514 43c-1 .1-2-.2-2.8-.4l2.5-.6 3.4-1.5-6-2 1.8-.4c17-4 34.4-2.8 51.7-3 1.2 0 3.2.8 3.6 1.8 1.7 3.8 4.7 4.3 8.5 4M550 36.5L519.5 38c-.6.1-1 1-1.4 1.8-.1.2.7 1 1 1l14.2-1c1.4-.1 2.7-1 4-1l27.5 1c.7 0 1.4-.4 2-.5-.6-.5-1.2-1.3-2-1.4-4.8-.4-9.7-.7-15-1.6zm505 729.3c-3.6 3.5-10.4.7-12.8 7-.3 1-5.2-.2-7.8.3-2.2.5-4.2 2-6 3.2-.8.5-1.5 2.2-1.2 2.8.5 1 2 2 3 1.8 3.6-.8 7.4-1.5 10.6-3.2 4-2.3 5.8-1 6.2 2.8.2 2 4.8 4.4.2 6.5-.5.2-1.8-.4-2-.8-.5-2.3-.8-4.8-1.2-7l-7 2c-1.6.6-3.3 1.2-4.5 2.3-1.8 1.6-3 2.7-4.3-.3-.2-.4-.8-.7-1.2-1-.2.5-.6 1-.7 1.6-.1.5 0 1 0 1.5.1 2.4 1 6.3 0 7-2.3 1.5-5.7 1.5-8.6 2-1 .2-2 0-3 0l-3.4.5 4-2.5c.5-.3 1.3.1 2-.1 7.2-1.4 7.3-1.4 7-8.4-.3-6.3-.3-10 9.4-13.4l16.7-5.5c1.5-.4 3.3.5 5 1z"/><path d="M183.2 892.3c2-1.8 3.4-5 6.6-2.3.3.2 1 .2 1.5 0 1.5-.5 3-1 4.5-1.7-.8 1.6-1.7 3.2-2.4 4.8-.6 1.4-1 3-1.4 4.4-1-1-.7 5-2.5.5-.8.6-2.2 1-2.4 1.8-.7 2.6-8.8 10-11.3 9.8-.3 0-1-1.5-.7-2 1.2-3 3-5.5 1-8.8-.2-.2.7-1.3 1.3-1.8l5.8-4.8zm28-799L143 107l-42.5 7c-.5.1-1-.3-1.7-.5.4-.1 1-.3 1.3-.4l117-21c.4-.1 1 .4 1.4.6l-1.4.3-6.2.3zm992.8 2c4-4.2 4-4.7-.8-6.2-1.2-.4-2.4-.7-3.6-1l-2.4-.7c1-1 2-3 3-3.2 3-.6 2 1.3 5 3 4.3 2.6 6 8.3 13 8.2 9.4-.1 19 2.3 28.3 3.6 1 .1 2.3-.5 3.5-.8l-2.3-3c-.7-.5-1.8-.5-2.7-1a115 115 0 0 1 10.1-.2c.2 0 .6.5.6.7-1 4-4.8 6-9.3 5.3l-42.4-4.8zM635 47c9.6 5.8 20 6.7 30.3 8 1.5.2 3 .6 4.6 1 1.4.4 2.7 1 4 1.6-1.4.1-3 .5-4.3.3l-25.2-3c-3-.3-5.2-.3-6.6-3.6-.8-2-3-4.6-5.8-1.2-.2.3-2-1-3.2-1.3L610 46c-1.4-.3-2.6-1.2-4-2 1.4-.4 3-1.2 4.2-1l15.6 3.2c2.8.5 5.8.5 9.2.7zm213 54a41 41 0 0 1-26.3 2L808 99c-.3-.1-.6-.3-.8-.4l1-.6 11.3-4c.4-.1 1 .2 1.3.3l-1.4.7c.6 1 1 2.7 1.8 2.8 9 1.4 18 4.4 27.3.2 1.4-.6 3.3-.1 5.2.2a43 43 0 0 1-5.7 2.8zm325 208.8c-1 .3-2 .5-3 .2-1.4-.6-2.7-1.5-4-2.3 1.8-1.2 4-3.8 5.2-3.4 3.7 1.2 6.5.6 10-1 2-1 5.2.1 7.7-.3 3.7-.6 8.2 1.5 11-3 .3-.4 2-.3 2.8.2.4.3.4 2 0 2.5-.5 1-1.5 2-2.4 2-8 .8-16.2 1.3-24.2 2.2-1 .1-2 1.6-3 2.7zM885.7 74c-2.2.7-4.6 1.8-7 2l-39 2c-.3 0-.7.1-1 0-1.5-.4-3-1-4.4-1.4 1.5-.2 3-.5 4.5-.6 11-.7 21.8-1 32.6-2.2 3.6-.4 7-3.2 10.4-5 .7-.3 1.4-.5 2-.8-.3.6-1 1.3-1 1.7.4 1.7-1 4.7 3 4zm.5 0c-.2-1.4-.2-2.8-.3-4.2l-.5-2.8c1.2.5 2.8.6 3.5 1.5 1.8 2.3 6.6 2 8.3-.7.3-.4 1-.7 1.7-.7h19c.6 0 1.2.3 1.8.4-.5.2-1.2.3-1.5.7-.6.7-1 1.6-1.4 2.4l-1.5 2.5c-.3-.6-.4-1.6-.8-1.7-2.6-.4-5.2-1-7.7-.7L886.2 74zm-129.5-5c-4 2.5-8.5 4.4-13.7 2.6-.5-.2-1.2.3-1.8.4l-10.5 1.7c-.2 0-.8-1-.7-1a31 31 0 0 1 2.8-4.8c.1-.2 1.8 1.2 2.7 1.2 3 0 6.7.5 9.3-1 3.3-1.7 3-2.3 5.4-.4.3.2 1 .3 1.3.1s.5-1 .4-1.3c-1.7-3.2.7-2.5 2.4-2.6.5 0 .3 0-.1 1.3-.4 1.8-1.3 4.2 2.5 3.7zM57 31l32 7c.7.2 1.3 1 2 1.4-.7.2-1.4.5-2 .6l-8 1c-.6.1-1.2-.3-1.7-.5l1.3-.5 3.7-1-4.5-1.8-18.2-3-21-6c-1.2-.4-2.2-1.6-3.3-2.5l4.4-1.4c.4-.1 1.3.4 1.3.6.4 2.7.3 2.7 3 3.3L57 31zm1240 769.8l-31.3-5.8c-.2 0 0-1.3-.3-2-.4-.7-1-1.7-1.5-2l-8-2.8c3 .4 5.8 1 8.6 1.8l32.4 10.7zm25.2-747.5c-.7.4-1 .8-1.5.7l-6.6-1.6 35-2.4c1-.1 2-.3 3 .1s2 1.2 3 1.8c-1 .4-2 1-3.2 1l-29.6.3zm-46 299l9 3.5c.4.2.4 1.3.6 2L1273 361c-.3.1-.7-.7-1-1 .5-.3 1-.7 1.5-.8l8-1c.5-.1 1-.5 1.5-.8-.5-.4-1-1-1.6-1-5-.1-9.8-.4-14.6.1-1.4.1-2.5 2.6-3.8 4l6 .2c-.4.5-.8 1.4-1 1.3l-8-.7c-.2 0-.4-.8-.4-.8 2.6-1.3 2-5.7 6.7-5.5 3.2.1 6.4-2.6 9.7-4 .6-.3 1.5-.1 2.2-.1l-1.7 1.5zm101-30l20.4-2c1-.1 2.2 1.3 3.3 2h-3c-.6 0-1.3.2-2 .3l.7 2c.2.5.6 1 .8 1.4-.6.1-1.3.3-2 .2-2-.6-4.2-1.2-6.2-2-3.5-1.4-6.3-.6-9 1.8-1 .8-2.2 1-3.4 1.4-1.3.3-2.7.4-4 .6 1-.5 2-1 3-1.4.7-.4 1.2-1 1.8-1.6-.5-.2-1-.5-1.6-.7l-2-.8 3-1zm-774-275.5l23 5.3c.5.1 1 .4 1.6.6-.6.1-1.2.5-1.8.4l-30-3.4c-.8-.1-1.5-.4-2.2-.6-1-.2-2-.3-2.8-.4 1-.6 1.7-1.4 2.6-1.7.7-.2 2-.1 2.2.3 1.2 2 1.8 2 2.6-.2 1-3 3-.7 4.7-.2zm528 267c.5-1.4 1-3 2-3.6 2.4-1.2 5-2 7.8-2.7 2.6-.8 7.6 2.5 7.7 5.2 0 .5-1.5 1.4-2.2 1.4-2.8-.1-5.7-.8-8.5-.8-2.2 0-4.5.6-7 .7zm-39-276.5c2.5-1 6 1.5 6.6-2.6a6 6 0 0 0-1.8-3.9c-2.4.5-6.6-3.4-7 2.5 0 .6-.3 1.2-.5 1.8-.2-.6-.3-1.3-.7-1.7l-5.7-5 7.4.6c.8 0 1.6-.3 2.3-.3 2.3.1 6.3-.1 6.4.5.7 3 1 6.6.1 9.7-.7 2.5-8 3-10 1l2.8-2.7zM1009 36c2.3.3 4 1 5.8 1 5-.2 9.8-.6 14.8-1 .2 0 .4-.1.5 0 3.3 2 6.5 1.2 10 0 .6-.2 1.4.3 2 .5-.5.5-1 1.2-1.4 1.4-2.7.8-5.5 2-8 2l-24.7-2c-.5 0-1-.4-1.6-.6l3-1.4zm-48.8 43.8a25 25 0 0 0-3.2-1.1c.1 4.2-2.3 2.2-4 1.7l-15-4c.6-.2 1-.6 1.7-.5l9.5 1c.8.1 1.7.5 2.5.8.1-1 .3-2 .2-3s-.8-1.7-1-2.6c-.1-.7.3-1.5.4-2.3.4.7.5 1.6 1 2 2.7 1.8 5.5 3.3 8.2 5 1 .7 2 1.7 3 2.6-1 .1-2.2.2-3.6.1zM1175 354l9.6 3.2c.5.2 1 1 1.3 1.4l-1.8.5c-3 1.2-5.7 1-8.2-1-4.3-3.3-9-1-13.7-1-.8 0-1.5-.3-2.3-.5l1.8-1.5c4-2.8 8.3-2.2 13.2-1zm130-260.7l29 6.8c1.3.4 2.4 1.2 3.6 1.8-1.7.4-3.6 1.5-5 1l-27.6-9.7zM1186 289c1.7-.2 3-.6 4.2-.7a17 17 0 0 1 3.7.1c.1 0 .4 1.5.1 1.8-1 .7-2 1.6-3 1.7h-11.4c-1.2 0-2.4.5-3.7.7l-3.7.8c1-1 2-2.7 3.2-3 3.4-.8 7-1 10.8-1.5zM1040 90l15.6 1c2.7.1 5.4-.8 8-.8.8 0 1.6 1.2 2.4 2-.6.3-1.2 1-1.8 1l-25-2c.1-.3.3-.7 1-1zm183 269.3l25.5.8c.5 0 1 .2 1.4.3-.5.2-1 .6-1.4.6a44 44 0 0 1-25.4-1.7zm-138.3-321a102 102 0 0 1-8.6-.2c.1-.7.1-1.5.4-2 1.3-1.7 4-2.8 1.5-5.6-1.4-1.6-2.2-3.4-4.6-1.4-.6.5-1.6.4-2.4.6.6-.7 1-1.6 2-2 4-1.8 7-.3 7 3.6-.2 3.8.3 6.4 5 7zM1122 766c-.5 2-.2 4.6-3 2-.7-.6-2.5-.1-3.7.3-.5.2-.8 1.3-1.2 2 .5.2 1 .5 1.6.6s1.3.1 2 .1a1 1 0 0 1 .1.7l-5 3c-.2-.4-.6-.7-.6-1-.1-2-.4-4 .1-6 .3-1 .3-4.3 3.6-2 1.4 1 4-.2 6.3.2zM720.7 521c-1 2-1.7 4.5-3.4 6-2 1.7-5 2.4-7.4 3.5 1.8-2.4 3.4-5 5.5-7.2 1.2-1.2 3.3-1.5 5.3-2.2zM1115 51h8.6c.4 0 1 .3 1.3.4-.4.2-.8.5-1.2.5a2146 2146 0 0 1-21.1 0c-.5 0-1-.4-1.6-.5.6-.1 1.2-.4 1.8-.4h12zm-44.8 795.3l19.6-5.2c.6-.2 1.4.3 2.2.5l-1.8.5-18.5 5.7c-.4.1-1-.8-1.4-1.5zM927 112a82 82 0 0 1 6.5 1c1.8.4 3.6 1 5.4 1.4-.2.2-.4.6-.6.6h-6.7c-1.7-.1-3.3-.7-5-1l-3.7-.7 4-1.3zm218.2-61.2c-4-.4-7.7-.6-11.5-.8-.6 0-1.2-.3-1.8-.5.6-.2 1-.6 1.7-.7l11.6-.7c1.2 0 2.4 1 3.6 1.5l-3.6 1zM1138 82h1l8.6 2s-.1 1-.2 1c-3.2.3-6.5 1-9.6.7-2.4-.3-2.2-2.4.2-3.8m.5 1l.5 2 2-.8c-.5-.4-1-.8-2.5-1.2zM692.7 531.3c-3.4-3-2.7-6.6-2.7-10 0-.4.4-.7.5-1l.4 1.3c1 4.5 1.5 9.2 6.4 11.6.6.3 1 1 1.4 1.7-1 0-2 .3-2.6-.1-1.2-.8-2-2-3.4-3.3zM244 90l15.3-3.8c.8-.2 1.8.1 2.7.2l-2 1a26 26 0 0 1-17 3.6c-.3 0-.6-.4-1-.6l1.8-.3zm824-51h-5a36 36 0 0 1-3.8-.4s-.1-1.2.1-1.2l4.8-.8c1.2-.1 2.5.3 3.7.3a39 39 0 0 0 3.3-.2c-.8.8-1.7 1.6-3 2.4zM752 316.3c1.3.1 2.8.1 4 .8 1.7 1 3 2.5 4.7 3.8H754c0-.5.3-1 .1-1.5l-2-3.3zm454.2 441a166 166 0 0 1 13 2.5c.6.1 1 .7 1.5 1-.6.1-1.3.4-2 .2l-12.6-3.7zm10.5-668l-5.6-.6 5.3-.7c.7-.1 1.4-.1 2 0l9.4 2.4-8.2-.4c-1-.1-2-.3-3-.7zm-141.5 4c-2 .1-3.6-.1-5.2-.2 1.5-1 2.8-2.3 4.4-2.8 1-.3 2.6.4 4 .8.3.1.4 1 .6 1.5l-3.7.7zM268 85h-2.5c.2-.3.3-1 .5-1l12.4-1c.4 0 1 .2 1.3.3-.5.2-1 .6-1.4.7L268 85zm711.7.8c-2.6-.1-5 0-7.2-1-1.2-.5-1.7-2.4-2.4-3.8-.1-.1.7-.7 1-1 .6.8 1 1.8 1.8 2.4.8.7 1.8 1.2 2.7 1.6 1.4.6 2.8 1 4 1.8zm55.3 190.5l11.2 8.5c.3.2.4.7.6 1-.6-.1-1.3.1-1.7-.2l-10-9.3zm221 511.5l-13-3.5c5-2 8.6 2.5 13 3.5zM648 314v4.6c-.3-.1-.8-.1-1-.3l-.8-4a17 17 0 0 1-.2-4.2c.1-1 .8-2 1.3-3 .2.8.6 1.6.6 2.4.1 1.3 0 2.6 0 4.5zm556-219.2c-2.3.3-4.7.4-7 .1-.8-.1-1.4-1.4-2-2.2 1-.2 1.8-.8 2.6-.6 2.2.6 4.3 1.6 6.4 2.7zM577.2 41c-.1-.6.5-1.5.3-2-.4-.8-1.3-1.4-2-2l3.6 1c.3.1.6.2.8.4l4 3.2-5-.6c-.5-.1-1 0-1.7 0zM1183 779l-9.8-.4c-.1 0-.2-.8-.2-.8.6-.3 1.4-1 2-.8l8 2zM987.2 67c-.1-4 3-1.3 4.6-1.8.4-.1 1.5 1.5 2 2.5.1.2-.6 1.3-.8 1.3-1-.2-3-.6-3-1-.2-3-1.2-2.3-3-.8zm384.5 258.8c-.7 1.2-1 2.2-1.8 3-.5.6-1.4 1.2-2 1-1.3-.2-2.6-.8-4-1.3l2.6-1.6 5-1.3zM1020 30c2.5-.6 4.6-1.3 6.6-2 0 .2.1.7 0 .7L1021 31c-.3.1-.7 0-1 0l-8-.6 8-.4zM489.2 169.3c1-.5 1.8-.7 2.6-1-.5.6-.8 1.3-1.4 1.6-2.2 1-4.4 2-6.7 2.7-.8.3-1.8-.1-2.7-.2.7-.5 1.4-1.2 2.2-1.5l6-1.8zm385.8 45c1.7-1 4.4 4 5.4-1 .2.5.6 1 .6 1.5 0 .8-.1 2.2-.5 2.3-2.3.5-4.8 1-5.5-2.7zM288 721c.8.3 1 .7 1.5 1-1.7.7-3.3 1.4-5 2l-4.4 1.4c1.4-1 2.7-2.2 4-3 1-.6 2.2-1 4-1.4zM832.7 61.3c1.2-.5 2.7-.7 4-1l-1 3.4a166 166 0 0 1-3-2.5zM1268 276a50 50 0 0 1-7.4 3l4.6-3c.5-.3 1.2-.3 1.8-.5.3-.1.7 0 1 .4zM426.7 712.8a78 78 0 0 1 .3-8c0-.2.3-.5.5-.7.2.4.5 1 .4 1.3l-1.2 7.4zM851 62c-.6-.7-.8-1.3-1-2l8.7.3L851 62zM458.7 23.8l7-.6c0 .2 0 .7-.1.7l-8.4.8c.4-.2 1-.5 1.5-1zm649.5 13c1.4-.8 3-1.5 4.6-1.7 1.6-.1 3.3.3 5 .5-1.6.5-3.2 1-5 1.3-1.5.2-3 0-4.7-.2zM984.7 86.3c-.6-.2-1-.2-1.2-.2.2-.3.4-1 .6-1l9.6 1a21 21 0 0 1 1.3.4c-.4.2-.8.5-1.2.5l-9-.7zM1156 778c1-.2 1.6-.6 2.2-.6 1-.1 1.8 0 2.7 0 .1 0 .2.8.1.8l-2.5.8c-1 .1-2 .2-3 0-1.2-.3-2.3-.8-3.4-1.3h2c.4 0 1 .2 1.8.3zm-87.3 0c0 2.2 2.4 5-1.5 6.2-.4.1-.7.3-1 .5 0-.4-.2-1-.1-1.3.7-1.8 1.6-3.6 2.6-5.4zm285.5-448c2-1.7 4.5-3.3 7-5-.5.7-.8 1.5-1.4 2l-5.5 3zm-229-296.7c-.1-.6-.3-2 .1-2 .8-.4 2-.3 3-.1 1.3.3 2.4 1 3.6 1.5-1-.2-2.3-.6-3.4-.5-1 .1-2 .6-3.3 1.2z"/><path d="M963.7 81.8c1.4 0 2.5.2 3.6.3.5 0 1-.3 1.6-.4-.3.5-.5 1.5-.8 1.6-2 .3-4 .4-6 .5l1.5-2zM378 57c1 .2 1.4.5 1.8.7l-10.6 1L378 57zm44.7 505.8c.4-1 .5-1.8.6-2.6l.6 1.4c.1.3.1.7 0 1l-2.4 6.4 1.2-6.2zm612-473.5l1 1.6c-.3 0-.7.2-1 .1l-6.5-2.3a63 63 0 0 1 6.5.5zM1096 95c1.3 0 2.2-.2 3 0 .7.2 1.4.7 2 1l-2 .2a29 29 0 0 1-4.6-.7c-.4-.1-.5-1-.8-1.7.7.3 1.3.7 2.5 1zm12-65l3 .7c-.7.4-1.3 1-2 1.2-.5.2-1.2-.1-1.8-.3-1-.4-2-1-3-1.3l3.8-.3zm65 280.3c.3-.2.7-.3 1-.2l5.6 2c.1 0-.1.6-.2 1l-4.7-1.8c-.6-.2-1-.5-1.7-1zM278 870c-.5-.4-.6-.8-.4-1l2-3.8 1 1a14 14 0 0 1-2.6 3.8zm967-776.2a41 41 0 0 1-6-.8l-2.7-.7c1-.1 2-.4 3-.2a45 45 0 0 1 6 1.7zM180.2 829.3l3.3-4.2c.1.3.5.6.4.8l-2.7 4.2c0 .1-1-.4-1-1zM1069 26c-1.2.7-2.8 1.3-4.5 2 .1-.5.1-1.2.4-1.3l4-.7zm203 73c1 .5 1.4 1 2 1.4l-5 .6c-.3 0-.6-.4-1-.6 1-.4 2.2-1 3.8-1.3zM229.7 91.8a49 49 0 0 1-7.6.2c-.7 0-1.4-.4-2-.6.6-.1 1.2-.4 1.8-.4a64 64 0 0 1 7.9.7zM427 354.3c1-.5 2-.7 3-1l-1 3.4-1.7-2.5zm866.7 3.7a45 45 0 0 1-3.5 1.8l.7-3.4c.8.6 1.7 1 2.8 1.7zM1021 844.8c-4.4-2-.6-3.2.7-4.7.1-.1.6.1 1 .1l-.3 1c-.4 1-1 2.2-1.3 3.6zM578 166c.2-1 .4-1.4.7-1.8.1 1 .3 2.2.3 3.3l-.2 3.3c-.2-.1-.7-.1-.7-.2V166zm-86.3 446c-1 1.7-2 3.3-3.5 5l3.5-5zm780-527.7c-2.4.3-5 .3-7.7.3 2.5-.2 5-.4 7.7-.3zm-890 555c.1.4 0 .5-.1.6l-2.4 4 .8-5s1 .1 1.7.4zm955.5-534a39 39 0 0 1 4.7 3.2l-.5.6c-1.5-1-3-2.3-4-3.7zM1305 92.8l-7-1c1.2-.2 2.4-.6 3.5-.4 1.2.2 2.3 1 3.4 1.6zm-6.8 713.2c.4-.8 1-1.7 1.8-2.7a250 250 0 0 1 .6 4.7l-2.3-2zm-244.5-20.2c-.4 0-.6-.3-.7-.5l-1.7-4c.3-.1.8-.3 1-.2l1.6 4.7zM923 88l-5.8-.3c.1-.2.2-.7.3-.7l6.3.3s.1.2 0 .3-.2.2-.8.4zM387 65l2.8.3c-.5.2-1 .6-1.4.6-.6.1-1.3.1-2 0-1-.2-2.2-.4-3.3-.7l3.8-.3zm-32.8-26.2c0-.4.2-.7.5-.7l4.2-.6v1a24 24 0 0 1-4.7.4zm697.5-2.5a14 14 0 0 1-3.4 1.6l-.4-1.3c1.2-.2 2.3-.4 3.8-.4zM377 68c-1.3.5-2 1-3 1.5-.1.1-.6-.6-1-1l4.4-1.5c.1 0 .4.2.4.3 0 .2-.2.5-.8.7zm653 723a33 33 0 0 1 1.3-3.8c.2.3.7.7.6.8-.6 1.2-1.3 2.4-2 3zm256-693a83 83 0 0 1-5.5 1c-.1 0-.2-.4-.3-.7.3-.1.6-.3 1-.3h5zm-868 0c-.3-1.2-.8-1.8-1-2.5-.1-.7.2-1.5.3-2.3l.7 2.3c.3 1 .7 2 1 3 0 .1-.2.3-.3.3-.2 0-.5-.2-.7-.8zm484 235a25 25 0 0 0-2.8.7v-2.3l3.3.7c.1 0 .4.2.3.3 0 .2-.2.5-.8.7zm11.7-246.7l2 1c-.4.3-.8.8-1 .7-1.2-.4-2.3-1-3.5-1.6.8-.1 1.6-.2 2.6-.1zM1084 754a46 46 0 0 1-2.8-.3c.4-.2 1-.6 1.4-.6a15 15 0 0 1 3 0c.5 0 1 .4 1.4.6l-2.8.3zm83.7 21.8c-1.7.4-3.2.5-4.7.6v-1c1.6 0 3.3 0 4.7.3zM491 492c-.2 1-.4 1.4-.7 1.8l-1-4.6.7 1.3c.3.4.7.7 1 1.5zM933 83l1.7-3.8-.7 4.3c0 .1-.2.4-.3.3-.2 0-.5-.2-.7-.8zM426.7 702.8a9 9 0 0 1-1.7-2.8c0-.1.4-.5.7-.7.4 1 1 2.2 1 3.5zM1247 801h3.5c.1 0 .2.4.3.6-1-.2-2.2-.4-3.8-.7zm58 11c.5 0 1.5-.1 2.5.1.2 0 .3 1 .4 1.6-.8-.5-1.6-1-3-1.6zM790.7 56.8c1.2-.2 2.2-.2 3.2-.2l-3.4 1.4c-.1 0-.4-.2-.3-.3 0-.2.2-.5.5-1zM897 339c.4-1.3 1-2 1.3-2.8.2.3.7.7.6.8-.6 1-1.3 1.7-2 2zM174 836c.3-1 1-1.8 2-2.6a7 7 0 0 1-2 2.6zm580-511c-1.3-.1-2-.2-2.8-.3.6-.2 1.2-.6 1.8-.6 1 0 2 .2 2.8.3-.4.2-1 .5-1.8.7zm503.2-238.7c-.5.7-.7 1-1 1.6l-1-1.7 2.4-.8c0 .1.1.3 0 .3l-.6.6zM314.7 795.8c-.4.1-.6 0-.6-.1l.2-4.6c.2 1.5.4 3 .3 4.7zm391-477.5c.1.4 0 .6-.1.6l-4.6-.2 4.7-.3zm222-39c-.1.8-.5 1.3-1 1.8l-.7-2.7 1.6 1zm-228 218.5a15 15 0 0 1 2.9-.6l-3 1.8c-.1 0-.4-.2-.3-.3 0-.2.2-.5.5-1zM757.2 69c-.2-.3-.3-.7-.2-1l.3-2.8c.2.3.6.6.6 1-.1 1-.3 2-.7 3zm298.5-29.2c-.4.1-.6 0-.6-.1l1-3.4.1 2c0 .5-.2 1-.6 1.6zm-902 980.5c-.1 1.3-.4 2.3-.8 3.3 0 .1-.6-.1-1-.2.5-1 1-2.2 1.8-3zm68.5 6.7c-.6-1.6 1-4.6-3-4l7.5-6a88 88 0 0 1-4.5 10zm319.5-613.2c.5 1.2 1.2 3.7.8 4-1.6.8-3.5.8-5.3 1 .3-.8.4-1.8 1-2.3 1-1 2.2-1.6 3.6-2.7zm59 60c-1-.1-2-.3-2.2-.8-.3-1-.1-2 .1-3 .1-.3.7-.5 1-.8a21 21 0 0 0 .4 2.8c.2.6.6 1 .7 1.8zm-74.5 84.5a6 6 0 0 1-.2-2.4c0-.2.5-.4.8-.6a15 15 0 0 1-.6 2.9zM473 412.8a307 307 0 0 1-1-14c0-.5.4-1 .7-1.5.4 1 1.3 2 1 2.7-1.2 2.7-1 4.6 2 5.6.3.1.3 1.7 0 2.3-.8 1.7-1.8 3.2-2.7 5zm-1.8-45.5l-.3 7.3c0 .4-.2 1-.4 1.3-.2-.2-.6-.3-.7-.5-.3-2-1-4-.8-6 .1-1.2 1.5-2.3 2.3-3.4.1.1.4.2.3.3 0 .2-.2.5-.5 1zm-.5 17.5c-.4 0-.7-.3-.7-.5v-3.6c0-.2.4-.3.7-.5l.2 4.7z"/><path d="M473 413.3c.3.5 1 1.2 1 2-.1 1-.8 2-1.2 2.8l.3-2.6c.1-.6 0-1.3 0-2.2zM564 260l-6.8-.3c.1-.2.1-.7.2-.7l7.4.2s.1.2 0 .3-.2.2-.8.4zm62.7 70c.3.2.3.4.2.5l-7 5.5c-.1.1-.5-.3-.8-.4l7.7-5.6z"/><path d="M627.2 330a41 41 0 0 1 .8-6c.1-.6.4-1.2.7-1.8.4.6 1.4 1.4 1.2 2-.6 2-1.6 4-2.7 6zm11.8-22.2c-.3.1-.8 0-.8-.1l-1-7.4s.2-.1.3-.1l1.4 7.6zm-29.8-45.5c-.4 1-.5 1.8-.6 2.6-.2-.5-.6-1-.6-1.4 0-.8.1-1.6.4-2.3s1-1.2 1.4-1.8a15 15 0 0 1-.6 2.9zM556 192c1-.6 1.8-.7 2.7-.8-.2.6-.3 1.3-.7 2-1 1.5-2 2.8-2.8 4.3l-1 1.3-1.7-1.7c.4-.3 1-.6 1.2-1a21 21 0 0 0 2.4-3.8zm7.2 4.3c-1.2-.1-2.2-.5-3.2-.8.8-.1 1.5-.2 2.3-.4l5.5-1.6c.1.5.3 1.2.1 1.4-.5.5-1.3 1-2 1.2-.8.2-1.6 0-2.7.3zm-81.2 485c.5.1 1 .4 1.8.8a22 22 0 0 1-2.4 2.8l.7-3.6zm361-330.5l-2-7.6c-.1-.3.4-.7.6-1 .1.3.3.5.4.8l1 7.8zm-10-1.8a49 49 0 0 1-.3 2.8c-.6-.8-1.6-1.5-1.6-2.3s1-1.6 1.5-2.3c.1.4.2 1 .3 1.8zm3.2 2.3c.4-.7.6-1 .7-1.5l.5-2.7c.2.5.7 1.2.5 1.5-.5 1 1.8 4-1.7 2.7z"/></svg>